<?xml version="1.0" encoding="UTF-8"?>
<svg id="Layer_1" data-name="Layer 1" xmlns="http://www.w3.org/2000/svg" viewBox="0 0 383.04 272.38">
  <defs>
    <style>
      .cls-1 {
        fill: #8ebac8;
      }

      .cls-2 {
        fill: #6f757c;
      }

      .cls-3 {
        fill: #b0c1cc;
      }

      .cls-4 {
        fill: #838d93;
      }

      .cls-5 {
        fill: #92bbc7;
      }

      .cls-6 {
        fill: #6c757f;
      }

      .cls-7 {
        fill: #626f7f;
      }

      .cls-8 {
        fill: #8f9ca6;
      }

      .cls-9 {
        fill: #23313f;
      }

      .cls-10 {
        fill: #1e2e3c;
      }

      .cls-11 {
        fill: #dadede;
      }

      .cls-12 {
        fill: #e0e3e7;
      }

      .cls-13 {
        fill: #294a5f;
      }

      .cls-14 {
        fill: #b4c3ca;
      }

      .cls-15 {
        fill: #2a3942;
      }

      .cls-16 {
        fill: #223d52;
      }

      .cls-17 {
        fill: #79868e;
      }

      .cls-18 {
        fill: #d7e2e6;
      }

      .cls-19 {
        fill: #1a1d22;
      }

      .cls-20 {
        fill: #a2acb1;
      }

      .cls-21 {
        fill: #e8f0f2;
      }

      .cls-22 {
        fill: #b6d3df;
      }

      .cls-23 {
        fill: #c0ced1;
      }

      .cls-24 {
        fill: #818990;
      }

      .cls-25 {
        fill: #1e2026;
      }

      .cls-26 {
        fill: #3a515d;
      }

      .cls-27 {
        fill: #283f53;
      }

      .cls-28 {
        fill: #94c7d4;
      }

      .cls-29 {
        fill: #afb6bd;
      }

      .cls-30 {
        fill: #e3e8eb;
      }

      .cls-31 {
        fill: #8d9fa8;
      }

      .cls-32 {
        fill: #4b525a;
      }

      .cls-33 {
        fill: #e7f0f2;
      }

      .cls-34 {
        fill: #181a1f;
      }

      .cls-35 {
        fill: #545d68;
      }

      .cls-36 {
        fill: #c7d4dd;
      }

      .cls-37 {
        fill: #e2ebef;
      }

      .cls-38 {
        fill: #8b9298;
      }

      .cls-39 {
        fill: #5a5f63;
      }

      .cls-40 {
        fill: #3a444e;
      }

      .cls-41 {
        fill: #171a20;
      }

      .cls-42 {
        fill: #1c1e24;
      }

      .cls-43 {
        fill: #769daa;
      }

      .cls-44 {
        fill: #8795a2;
      }

      .cls-45 {
        fill: #65717c;
      }

      .cls-46 {
        fill: #78808a;
      }

      .cls-47 {
        fill: #c9dde3;
      }

      .cls-48 {
        fill: #44758b;
      }

      .cls-49 {
        fill: #2e3a47;
      }

      .cls-50 {
        fill: #3b6d86;
      }

      .cls-51 {
        fill: #2e3f51;
      }

      .cls-52 {
        fill: #80878b;
      }

      .cls-53 {
        fill: #679fb3;
      }

      .cls-54 {
        fill: #7e868b;
      }

      .cls-55 {
        fill: #6a6e71;
      }

      .cls-56 {
        fill: #dee3e7;
      }

      .cls-57 {
        fill: #9b9fa1;
      }

      .cls-58 {
        fill: #b6babc;
      }

      .cls-59 {
        fill: #58788d;
      }

      .cls-60 {
        fill: #d0d6dc;
      }

      .cls-61 {
        fill: #c2cfd9;
      }

      .cls-62 {
        fill: #c4d8e3;
      }

      .cls-63 {
        fill: #e2e7e9;
      }

      .cls-64 {
        fill: #495761;
      }

      .cls-65 {
        fill: #599fb5;
      }

      .cls-66 {
        fill: #afb4b8;
      }

      .cls-67 {
        fill: #396278;
      }

      .cls-68 {
        fill: #74808b;
      }

      .cls-69 {
        fill: #828a8e;
      }

      .cls-70 {
        fill: #98b3c1;
      }

      .cls-71 {
        fill: #e5eff1;
      }

      .cls-72 {
        fill: #6eb0c4;
      }

      .cls-73 {
        fill: #243b4b;
      }

      .cls-74 {
        fill: #616e75;
      }

      .cls-75 {
        fill: #cae0e7;
      }

      .cls-76 {
        fill: #ecf5f6;
      }

      .cls-77 {
        fill: #848a95;
      }

      .cls-78 {
        fill: #8198a6;
      }

      .cls-79 {
        fill: #727a82;
      }

      .cls-80 {
        fill: #eef1f1;
      }

      .cls-81 {
        fill: #335a71;
      }

      .cls-82 {
        fill: #59a4be;
      }

      .cls-83 {
        fill: #97b2c3;
      }

      .cls-84 {
        fill: #d4dbde;
      }

      .cls-85 {
        fill: #b0bdc2;
      }

      .cls-86 {
        fill: #d4dade;
      }

      .cls-87 {
        fill: #8aa1af;
      }

      .cls-88 {
        fill: #79abbd;
      }

      .cls-89 {
        fill: #254a5e;
      }

      .cls-90 {
        fill: #3d4854;
      }

      .cls-91 {
        fill: #a1a6ab;
      }

      .cls-92 {
        fill: #e2f2f9;
      }

      .cls-93 {
        fill: #3f4650;
      }

      .cls-94 {
        fill: #283b4c;
      }

      .cls-95 {
        fill: #8a9196;
      }

      .cls-96 {
        fill: #1b1d22;
      }

      .cls-97 {
        fill: #414e56;
      }

      .cls-98 {
        fill: #6f777d;
      }

      .cls-99 {
        fill: #f4f9fb;
      }

      .cls-100 {
        fill: #adc1c9;
      }

      .cls-101 {
        fill: #acc7cf;
      }

      .cls-102 {
        fill: #555c61;
      }

      .cls-103 {
        fill: #b9bdc4;
      }

      .cls-104 {
        fill: #1c2433;
      }

      .cls-105 {
        fill: #6d818b;
      }

      .cls-106 {
        fill: #f8f9fa;
      }

      .cls-107 {
        fill: #dfe4e8;
      }

      .cls-108 {
        fill: #e3f0f3;
      }

      .cls-109 {
        fill: #7b848b;
      }

      .cls-110 {
        fill: #3c667c;
      }

      .cls-111 {
        fill: #487f98;
      }

      .cls-112 {
        fill: #9db6bf;
      }

      .cls-113 {
        fill: #445460;
      }

      .cls-114 {
        fill: #5f6368;
      }

      .cls-115 {
        fill: #374f5f;
      }

      .cls-116 {
        fill: #1b1e24;
      }

      .cls-117 {
        fill: #b7b8bc;
      }

      .cls-118 {
        fill: #20252f;
      }

      .cls-119 {
        fill: #2d4b60;
      }

      .cls-120 {
        fill: #868f94;
      }

      .cls-121 {
        fill: #4f565b;
      }

      .cls-122 {
        fill: #c9d3d5;
      }

      .cls-123 {
        fill: #6c7478;
      }

      .cls-124 {
        fill: #5c6972;
      }

      .cls-125 {
        fill: #dee1e7;
      }

      .cls-126 {
        fill: #a9bbc2;
      }

      .cls-127 {
        fill: #5c788a;
      }

      .cls-128 {
        fill: #9fa3a5;
      }

      .cls-129 {
        fill: #52585d;
      }

      .cls-130 {
        fill: #5c7985;
      }

      .cls-131 {
        fill: #585f65;
      }

      .cls-132 {
        fill: #54859b;
      }

      .cls-133 {
        fill: #f6f8f9;
      }

      .cls-134 {
        fill: #64747d;
      }

      .cls-135 {
        fill: #6e7478;
      }

      .cls-136 {
        fill: #e4e9eb;
      }

      .cls-137 {
        fill: #999fa5;
      }

      .cls-138 {
        fill: #a0bfca;
      }

      .cls-139 {
        fill: #a3c6d1;
      }

      .cls-140 {
        fill: #487b91;
      }

      .cls-141 {
        fill: #46819b;
      }

      .cls-142 {
        fill: #2d6283;
      }

      .cls-143 {
        fill: #71b8cd;
      }

      .cls-144 {
        fill: #606c78;
      }

      .cls-145 {
        fill: #496d83;
      }

      .cls-146 {
        fill: #5d9baf;
      }

      .cls-147 {
        fill: #304152;
      }

      .cls-148 {
        fill: #9fa7aa;
      }

      .cls-149 {
        fill: #c4dde3;
      }

      .cls-150 {
        fill: #8fa3b1;
      }

      .cls-151 {
        fill: #677077;
      }

      .cls-152 {
        fill: #c6d0d3;
      }

      .cls-153 {
        fill: #32485c;
      }

      .cls-154 {
        fill: #55636b;
      }
    </style>
  </defs>
  <path class="cls-41" d="M296.25,8.42c2.6-2.04,4.45-1.56,4,1.81l4.15,2.29c8.25,7.83,16.23,16.24,24.03,24.62,1.62,1.74,2.93,3.56,3.46,5.93,2.32,4.07.1,4.42-6.67,1.03-5.67-5.45-11.56-10.61-17.68-15.47-2.44.41-6.25-3.33-7.04-5.69-2.47.02-4.46,1.09-5.96,3.22l-1.64-.4c-.77,1.33-1.98,1.52-3.62.57-2.5,4-7.6,4.03-6.58-.48-2.52-2.42,1.59-6.61,4.39-7.37-.9-.2-.87-.49.01-.86l-.15-1.12c-14.46-.55-29.03-.63-43.7-.25,4.52,5.32,9.14,10.76,13.85,16.31,1.65-1.29,2.26-.7,1.35,1.22l5.87,5.82c2.01,1.02,3.32,2.53,3.93,4.54,1.29-3.47,7.93-15.01,10.94-16.45.42-.2,1-.04,1.64.22.29-.46.58-.81.82-.78,4.78.45,6.22,5.99,2.88,9.48-6.47,4.74-8.59,9.26-6.36,13.57l-1.25,2.19c2.87.77,3.53,2.01,1.97,3.74.53-.21.98-.35,1.14-.19,4.45,4.53,9.8,10.59,12.89,15.67,2.86,2.84-.41,5.69-3.53,5.36-3.54-.37-4.98-1.59-7.71-3.97-2.66-.3-6.19-3.71-7.14-6.31l-2.28.5-6.12,12.46-1.68.1-2.53,1.81c-2.98,6.69-8.23,5.7-12.36.79-.9,1.77-1.63,1.45-1.48-.57-1.62-.51-3.32-1.76-5.1-3.76-21.73-10.49-51.85-9.12-75.83-7.56-18.61,1.21-32.03,3.68-39.89,22.59l-2.74,1.03c-1.63,3.31-.11,5.4,3.21,3.05,5.41-4.96,10.21-10.46,14.4-16.52l1.46.35c.49-.84.92-.81,1.29.08,3.74-1.47,5.63-1.04,6.11,3.25.57,5.09-11.92,16.97-17.42,17.16.28.94-.04,1.88-.94,2.84,11.11,3.61,21.46,9.72,31.32,16.16l9.79,3.93.77,1.54c1.84-.76,4.79-.5,6.13.95,4.11-.03,8.14.2,12.1.69,5.9-1.57,11.75-2.46,17.54-2.67.77-1.66,2.43-2.92,4.99-3.78,5.75-4.76,11.91-8.32,18.49-10.68.82-4.55,8.36-6.81,12.63-5.12,4.89.3,2.98,4.03-.32,6.18-1.35,2.13-3.48,4.07-6.4,5.83.48,2.34-1.55,3.01-3.57,1.64-14.93,19.52-37.38,19.17-59.95,17.97l-1.63-1.99c-3.72.82-7.75.11-12.1-2.13l-25.1-16.47c-10.76-5.98-27.56-14.58-36.74-2.01l-2.59.28c-1.08,10.14-1.26,21.51-.44,31.69.88,10.87,9.76,23.27,21.56,23.42l1.16,2.15c5.88.02,11.7.35,17.46,1l6.57.83c28.88-.39,57.76-.48,86.65-.27,4.29.42,6.47,4.97,3.03,7.32-31.78,1.38-66.85.96-99.41.43-.09,1.75-1.58,1.14-2.8.24-.42,2.37-.49,2.49-2.05.63.74,4.11-1.14,5.59-5.65,4.46,2.82,1.9,3.78,7.92-.57,5.58l-.98.33c-14.33-12.57-28.18-25.67-41.55-39.28l.4-2.49L13.19,80.65c-.67-2.74.74-5.53,4.22-8.38l22.36-22.88,2.96-1.23-.81-1.03c11.13-11.84,22.44-23.6,33.92-35.29l1.47-.3c-.52-3.41,4.42-4.49,7.55-5.09,5-.96,29.13-.82,34.35-.1,1.41,1.33,3.84,1.98,7.31,1.96.29-.89.63-.88,1.02,0,10.67-.5,21.36-.85,32.07-1.06l1.76-.92c44.82-.3,89.54-.06,134.17.7l.71,1.36Z"/>
  <path class="cls-128" d="M294.12,4.49c5.9-.39,9.17,4.06,2.13,3.93l-136.82-.39-31.88.3c-.4-.64-.7-1.15-.63-1.16,4.43-.87,15.11-1.82,19.47-1.39.29.03.54.49.77,1.08l1.02-1.11c4.62.77,8.9.41,12.83-1.08l133.12-.19Z"/>
  <path class="cls-97" d="M138.85,217l5.29,2.81c10.11,9.55,20.38,20.07,30.08,30.08.65.67,1.08,1.57,1.5,2.51s.73,1.97.99,3l1.31-.6c4.47,3.78,8.69,7.85,12.66,12.2l33.76-34.52,3.92-1.08-.04-2.84c1.86-2.63,7.64-8.34,10.62-8.62-1.47-2.68,4.17-7.43,7.24-6.04,1.43-.77,2.46-.8,3.1-.09-16.4,16.19-38.83,43.03-59.72,59.46l-69.35-70.01c-1.57-1.74-1.04-2.55,1.17-1.77,4.75.31,10.88,6.12,14.54,9.74,2.48,1.54,3.46,3.47,2.92,5.79Z"/>
  <path class="cls-63" d="M381.76,81.08c-.98-.32-.99-.67-.03-1.02-.72-.73-1.95-.79-3.68-.17l-9.16-9.71c-5.1-3.96-8.99-8.52-11.65-13.69l-2.16.53-12.35-12.45c-1.1,1.06-2.28,1.29-3.53.71l-2.9-.93c-10.81-10.42-21.32-20.94-31.54-31.56l-4.52-2.56c-1.27-.4-2.62-1.8-4-1.81.58-.6,2.91-1.76,1.65-2.82-1.02-.86-3.22.38-3.78-1.11,2.38,0,6.49-1.04,8.51.37,1,1.62,10.6,5.61,9.93,5.8.53-.15,1.77-1.73,2.4-1.1l49.1,49.23,18.49,18.52c.72.72.47,2.23.34,2.91-.08.4-.54.8-1.13.86Z"/>
  <path class="cls-15" d="M372.84,88.95c-4.61,5.21-9.31,9.98-14.57,15.32l-66.82,67.91-42.17,41.63c-.9.42-2.48,1.22-3.1.09-.43-.71-1.05-1.8-.65-2.28,2.51-2.98,21.44-23.13,22.95-23.79.83-.36,1.69-.12,2.45.28l3.27-4.4c-.38-.57-.64-1.06-.5-1.28,1.31-1.96,15.59-16.35,17.46-17.53l4.9-2.03-.94-1.95c24.83-24.71,49.66-49.43,74.5-74.16l2.32.57c1.93-.87,2.35,0,.89,1.62Z"/>
  <path class="cls-30" d="M81.41,150.65l22.4,22.42,19.72,19.02c3.08-1.61,10.52,5.17,8.12,8.23-1.33,3.7-4.63,2.17-9.9-4.6l-13.32-12.06c-5.15-1.17-8.61-4.2-10.38-9.11-2.33-.45-4.41-1.42-6.25-2.89-1.78-.46-3.5-1.77-5.18-3.94-.65.13-1.22.17-1.5-.09-3.94-3.79-9.5-9.74-13.08-13.91-.21-.24-.12-.73.05-1.29-3.69-2.77-12.94-10.24-14.65-14.05-.32-.72-.42-1.53-.46-2.37,3-.27,8.48,8.31,12.41,9.67,9.67,3.34,2.83,5,9.19,6.32,1.32.27,2.92.47,2.82-1.35Z"/>
  <path class="cls-57" d="M121.41,4.4c5.62.09,11.07.54,16.37,1.35-3.43.74-7.07,1.26-10.91,1.57l-.35,1.01-42.86-.03c-2.83,0-5.01,1.39-6.35,3.25-1.46,1.12-2.5,1.89-2.6-.36,3.69-3.5,5.71-6.69,12.35-6.71l34.35-.08Z"/>
  <path class="cls-55" d="M42.72,122.18c-.31.83-.89,1.33-1.75,1.47-13.36-13.99-29.43-26.11-40.97-42.32,16.39,12.9,29,27.54,42.72,40.86Z"/>
  <path class="cls-69" d="M77.31,11.55c-2.69,3.72-6.07,6.95-9.52,10.54l-25.05,26.08c-2.34,1.85-3.62,1.94-3.82.28l24.27-25.76c3.94-4.18,7.67-7.84,11.52-11.5l2.6.36Z"/>
  <path class="cls-131" d="M42.74,48.17l-19.05,19.81c-3.96,4.12-7.93,8.03-10.5,12.67-.7-.78-3.71-1.39-2.31-3.17,8.48-10.81,18.99-19.45,28.03-29.03,1.28.07,2.56-.05,3.82-.28Z"/>
  <path class="cls-39" d="M42.72,122.18l14.26,13.84c5.3,5.14,10.21,10.87,15.12,16.42,1.01,2.1.29,2.66-1.5,1.16-10.33-9.52-19.96-19.82-29.63-29.95-.21-.55-.54-1.74.23-1.82.62-.07,1.16.36,1.52.36Z"/>
  <path class="cls-102" d="M91.8,171.66l5.31,2.7c2.26,3.94,4.87,6.6,7.84,8,6.34,5.37,12.07,11.01,17.2,16.94l-.75,2.18c-.69.34-1.09,1.02-1.17,1.77-5.6-5.65-12.49-10.37-17.21-16.94-11.16-11.45-16.74-17.17-16.74-17.17l.36-1.41c1.95.89,3.71,2.34,5.18,3.94Z"/>
  <path class="cls-135" d="M86.62,167.72c4.13,7.13,11.47,11.74,16.38,18.58-1.72.23-2.59-1.27-3.8-2.5l-12.63-12.87c-5.71-5.82-10.41-12.21-15.97-17.33.7-.05,1.26-.51,1.5-1.16,4.56,5.16,11.04,9.29,14.52,15.29Z"/>
  <path class="cls-58" d="M148.13,4.53c2.36,1.97,1.95,2.26-.98,2.34-2.35,1.29-20.6-.75-19.61,1.46h-1.02c-1.26-2.38-4.4.11-7.14-1.65l17.44-.84c-.42-1.58-16.5.58-15.41-1.44l26.72.13Z"/>
  <path class="cls-11" d="M161,4.67c.04,3.86-11.44,2.56-13.85,2.19.57-.66.84-1.49.98-2.34l12.87.15Z"/>
  <path class="cls-74" d="M381.74,80.06c-.16.3.02.71.03,1.02-1.95,3.61-6.39,5.01-8.93,7.87-.22-.58-.49-1.14-.89-1.62-1.59-3.44,6.59-10.63,9.78-7.27Z"/>
  <path class="cls-25" d="M292.91,25.76c.38.35.71.73.86,1.16.33.98-10.75,15.28-12.74,16.13-.1,1.26.62,1.47,2.17.61l.78,1.41c1.93,1.88,8.54,4.18,6.95,0,.1-.57.2-1.01.31-1.01,3.35-.12,26.48-.72,27.62.06.31.21.51.58.68,1l.34-1.88c-2.51-.99-3.37-2.4-2.57-4.22-2.95-.19-8.41-5.95-10.15-8.81-.2-.33.03-.91.38-1.57,4.52-2.87,14.78,14.33,21.9,14.81.52.04,1.36,1.6,2,1.57.76-.04.36-1.55.46-1.95.54-.64,1.33-1.15,1.73-.76,11.76,11.29,23.48,23.16,34.3,35.22l-.25,1.23c-.58,1.69-1.27,3.28-2.38,4.49-16.13,17.74-34.51,35.99-52.1,52.31-1.21,1.12-2.79,1.84-4.47,2.45-1.15-.56-1.73-1.65-1.74-3.28l-1.29.64c.18,1.4.4,3,.67,4.82l-1.55,3.81c-7.9,8.64-15.89,17.27-24.29,25.43-.94.91-2.17,1.51-3.5,2.02-1.58.09-2-.47-2.37-1.68-4.56,3.25-7.72,3.84-9.47,1.75l-1.55-.75c-3.75.46-7.51-1.89-3.24-4.18l.19-1.38c4.72-.47,8.23-2.39,10.55-5.76.07-2.01,1.42-3.61,4.04-4.8l4.95-6.34c.43-2.76,1.57-4.49,3.42-5.19,1.5-.37,2.05.63,1.3,1.59.42-3,.3-5.57-.89-8.35-1.04-3.9-.95-7.39.27-10.46,1.52-4.23.7-7.87-1.09-11.9.51-5.99.42-11.92-.25-17.81-2.28,0-2.7-1.04-1.27-3.1-4.49-.76-9.05-.68-13.69.23l-1.29-2.06c-4.68-3.25,4.46-3.71,7.8-3.26-1.43-.49-1.41-1.45-.85-2.95,1.09-1.15,4.31-.66,6.15-.2.33-.88.67-.85,1.02.04,11.56,2.43,14.84,7.32,7.55,17.52,5.5,7.23,10.24,17.32,3.63,25.38l-.29,11.01c3.86,4.19,9.16-4.85,10.52-9.01,8.15-6.8,15.88-14.24,23.19-22.32,6.55-6.32,13.19-12.38,19.9-18.18l.2-1.86c-12.31-.18-24.6.07-36.87.75l-.74,5.65c1.72,2.92,1.76,5.15.1,6.69,2.58,1.23,2.29,1.98-.34,2.74.27,7.58-7.26,9.9-9.8,1.75l-.81-11.89c-2.34-.49-3.38-2.49-3.14-5.99-4.1-2.77-9.37-8.68-12.54-12.98-.15-.2.06-.66.36-1.19,3,1.64,6.44,2.88,10.09,1.2,1.08-.5,1.07-1.83,1.15-2.6,3.22,1.68,6.83,4.9,8.31,8.18,16.17.03,32.42-.43,48.74-1.36,1.22-1.2,1.54-2.76.94-4.67-2.6-.69-7-4.31-7.87-7.1-3.68-2.73-7.9-6.25-10.09-10.22-1.2-.44-2.55-1.13-4.06-2.07l-49.95-.06-2.03-1.92c-1.11-2.79-3.23-4.88-1.53-8.13,3.77-7.19,10.03-5.77,9.27-11.36-.31-2.28-1.72-4.34-3.83-4.96-1.45-2.15-.44-3.3,1.87-2.07-.43.77.46,1.31,1.04,1.69,1.76,1.17,3.98-3.55,5.63-3.58,1.2-.02,2.28,1.52,3.53,1.79Z"/>
  <path class="cls-116" d="M200.1,75.91c1.69-1.12,3.83-1.19,6.42-.22,10.34-.02,20.47,1.23,30.6,3.45.61.13.82.89.8,1.62l1.22-.67c5.79,5.79,11.52,11.63,17.19,17.54,1.96,1.13,3.3.23,1.97-1.45-.53.06-.99.05-1.17-.18-2.16-2.66-7.01-9.01-8.53-11.76-.3-.55.39-1.36.99-1.9l8.02,2.25c1.19-1.76,1.65-3.25,2.96-4.54s2.92-1.45,3.9-.31c.93,1.08.89,2.74-.1,4.99,2.81-.45,6.6-.64,9.22.34,1.81,1.84,5.08.81,6.75,4.49-.79,1.42-16.07-.77-13.7,1.71,2.43,1.3,2.39,3.55-.14,6.74,4.85-.26,9.91-1.11,15.19-2.55l1.2.74c4.31.14,2.27,19.5,2.14,18.69.6,3.59,3.38,7.66-.81,11.02-1.07-.1-1.04-1.24-.59-2.2-1.29-1.33-1.95-3.44-1.97-6.32-.93-1.97-1.86-3.86-2.79-5.67-9.57-6.96-20.96-5.42-31.44.3l-1.32-.54c1.21-1.86,1.8-4.35.32-6.18-.91-.29-.91-.67-.05-1.14l-1.05-1.62c-32.98-2.22-49.48-3.34-49.48-3.34l-1.88-1.07-5.53,1.88c-17.38.46-34.7,1.3-51.97,2.52l-2.87-1.1c4.32-2.9,7.85-6.24,11.37-10.49,2.05-2.47,5.51-4.64,3.35-8.85-.57-1.11-2.41-1.2-3.41-1.07l-.35-1.41c17.82-4.19,36.1-5.89,54.86-5.11l.67,1.39Z"/>
  <path class="cls-116" d="M277.03,171.47c.34.49.59.89.51.97-22.47,22.89-45.22,45.93-68.13,68.22-1.65,2.02-3.45,3.37-5.41,4.06.13.71.17,1.32-.12,1.6-1.97,1.95-12.55,11.68-13.73,12.09-2.48-2.45-5.03-4.28-7.64-5.47l-36.57-35.6c1.22-1.14.93-1.86.07-2.79l-2.8.07c-3.44-4.17-7.17-8.03-11.2-11.58l-.35-2.73c-2.04-3.4-5.32-5.53-8.12-8.23.93.37,1.05-.98.98-1.5-.06-.44-.28-1.12-.79-1.59-1.46-1.35-2.32-2.55-.94-3.96.75-.77,1.88-.98,3.35-.36,2.07.86,2.89-1.3,3.62-2.63,13.24,13.15,26.34,26.56,39.3,40.22l16.12,15.86c.64-.22,1.55-.62,2.73-1.21-.09-4.04,1.92-4.74,5.01-2.28,1.34,3.68,3.38,7.09,3.25.48-1.76.18-1.54-1.37.08-1.81l3.61-5.91c14.06-13.56,27.58-27.57,40.57-42.03,2.37-.62,5.05-1.48,2.8-3.87-3.29.22-6.36-.03-9.2-.77-.34-1.7-.68-6.39-3.52-6.53-16.07-.84-27.94.31-41.69-.1-12.34-.37-24.32-.44-36.79,0-4.93.17-10.06,1.42-14.24-1.24,22.32-.7,45.13-.93,68.43-.69l1.25-1.55c18.85-.17,37.65-.15,56.39.05l1.36.87c5.26-.94,8.5-4.81,10.62-3.5.91.56,1.33,2.27,1.21,3.43Z"/>
  <path class="cls-99" d="M193.97,98.16c.75,1.03-.28,1.76-3.09,2.21,2.1,1.87,2.18,5.28-.18,6.64-.02,5.99-.32,11.94-.89,17.85-.29,2.71-2.47,2.59-2.98-.06-5.53.26-12.54-.54-18-2.14-11.53-7.08-23.59-13.2-36.15-18.36-.49-.65-1.58-.78-.54-1.99.34-.4.96-.5,1.47-.84,20.09-1.84,40.21-4.19,60.36-3.29Z"/>
  <path class="cls-90" d="M261.47,134.92c1.98,2.58-2.67,1.55-2.44,1.52,5.99-.79,11.39,1.43,6.39,6.78.15,1.48-.09,2.51-.72,3.09-2.47-.34-4.63-1.73-6.47-4.15-.92-.7-.55-1.2,1.13-1.52-7.48.95-15.63,1.85-24.46,2.72,1.68,1.9,1.5,2.02-.97,1.95l-.83.5c5.7,5.91,10.06,12.2,13.1,18.88,1.65-.39,3.65-.19,6,.6l7.48-.03.72,1.36c-.73,4.75,5.09,1.19,4.79,4.93-5.62,1-11.28.99-17.58,1.01l-109.85.31c-6,.02-11.74-.57-17.46-1,.31-3.31,7.3-2.54,9.2-.77,14.79.27,29.64.33,44.54.19,4.2-1.26,8.78-1.65,13.72-1.18l2.06-1.37c-2.04-1.69-1.12-2.59,1.12-3.41l40.97-.59c2.09-.33,4.07-.67,5.94-1.04,1.23-5.71-6.38-16.08-11.79-18.3l-1.96,1.34c-10.46-1.88-21.22-2.36-32.28-1.45l-1.8-2.1c-2.97-.22-2.72-2.13.03-2.88-.01-.91.26-.95.81-.17,8.52-.62,17.03-1.69,25.52-3.21,2.56-1.27,4.67-1.52,6.32-.76,2.48-.59,2.35-.37.99,1.78,3.95.97,8.01,1.03,12.2.16.49-.5,1-.92,1.57-1.03,3.41-.65,20.86-3.67,22.22-3.26.66.2,1.24.61,1.82,1.09Z"/>
  <path class="cls-71" d="M225.65,16.5l-1.31,1.16-27.15.43c-3.6.21-10,1.39-13.8,2.25-3.15.71-5.93,3.2-7.67,5.82-2.64,6.54-6.86,11.37-12.67,14.47-8.38.76-16.81,1.19-25.28,1.28-1.79.81-7.41,3.33-9.27,2.3-.64-.35-.75-1.21-.73-2,5.01-6.28,16.23-17.47,22.4-22.63,3.6-3.01,6.33-3.94,10.18-3.86,14.95.33,29.6-.85,44.32.28,7.32.56,14.15.63,20.99.5Z"/>
  <path class="cls-133" d="M174.55,134.95c3.49,5.73-7.34,2.16-10.35.08-2.21,3.65-6.28.39-7.17-3.04-1.49.81-4.63-.84-4.88-2.84l-1.32.72c-12.32-5.3-24.97-10.5-38.17-13.03-2.89.59-4.73.16-5.52-1.28-1.62,2.7-4.4,8.84-1.18,12.03,3.1-.64,6.47-.01,10.11,1.88,3.67.2,6.47,1.35,8.4,3.45,3.3,1.23,6.73,1.89,10.31,1.97,1.78-2.54,8.55-2.01,9.36,1.17,1.9.57,3.15,1.04,1.89,2.86-1.87,2.71-22.65,2.26-27.19,1.59-4.07.97-7.39-.41-9.96-4.14-3.25.1-6.47-.02-9.66-.36-.41-3.12-.85-6.16-1.32-9.13-1.06-3.69-1.02-7.78.11-12.27,12.93-22.17,46.28,3.39,61.52,14.02,4.72,3.29,9.54,6.41,15.01,6.32Z"/>
  <path class="cls-89" d="M234.01,180.75c4.65-.02,9.02.05,14.16.66-5.42,3.01-7.45,7.4-11.09,11.13l-31.65,32.46c-3.04,3.11-6.36,5.64-9.2,8.32-.47-.26-.83-.52-.83-.78.05-8.32,17.08-37.34,22.85-44.64.56-.7,1.34-1.23,2.18-1.71l-1.27-2.8c-20,.2-39.64-.25-58.91-1.33-7.23.34-14.41,1.01-21.55,2-3.53-.58-4.9-1.55-4.1-2.89l99.41-.43Z"/>
  <path class="cls-106" d="M248.12,81.78c2.7,5.91-2.4,1.03-4.8-1.49l-4.32-2.16c-.26.92-.58.89-.96-.03-3.07.55-6.49.28-10.27-.83l-12.88-1.28-1.44-1.33c-3.44-.15-6.91-.49-10.41-1.01-.34,1.83-1.15,1.86-1.74.09l-.9.99c-19.21-1.06-38.05.65-56.5,5.13l-1.16-.86c-1.92,3.98-6.04,9.2-9.5,12.85s-10.7,10.75-8.71,2.22c3.04-6.71,7.48-13.87,13.58-18.8,4.83-3.9,11.53-4.3,17.5-5.33,18.18-3.16,36.24-2.66,54.62-1.54,8.68.53,26.41,1.84,32.51,7.71,1.94,1.87,3.22,4.39,5.35,5.66Z"/>
  <path class="cls-33" d="M95.78,56.59l-3.65,1.86c-5.1-.29-10.17-.15-15.21.44-5.48,6.2-11.54,11.76-18.18,16.7-2.25.92-29.25,1.12-30.93.34-.27-.13-.39-.59-.46-1.15,6.8-6.07,13.42-12.53,19.43-19.39l2.47-1.64,49.16.23c1.95,2.2-.55,4.61-2.63,2.61Z"/>
  <path class="cls-9" d="M131.8,181.42c2.16.41,3.15,1.25,2.96,2.53,1.91,2.1,3.64,2.91,5.18,2.43,3.35,1.85,4.65,3.86,3.9,6.02,3.87,2.24,7.54,5.18,11,8.82l-.78,2.25,3.07.52c3.26,2.66,9.53,8.64,9.21,12.57l4.02,1.44,14.43,13.68-4-10.53,1.04-2.27c-2.48-3.93-.52-6.44,5.89-7.54,3.64-4.93,7.84-4.14,12.63,2.36l-.34,2.98.65,1.37-5.77,16.4,1.27.68c.44.6,1.1,1.02,2.61.22.41,2.3-2.38,7.27-5.28,6.27-.78-2.04-.47-6.59-4.5-6.37l-2.11,7.5-30.36-30.45-7.41-7.88c-5.34-5.68-10.35-11.25-16.3-16.36-1.91-1.64-3.09-3.86-3.06-6.01.41-.74,1.34-.57,2.05-.63Z"/>
  <path class="cls-47" d="M228.82,17.72c1.61,1.58,1.14,2.18-.79.91-2.34,1.96-4.96,3.38-6.43,0-2.99,2.36-10.54,3.59-12.27-.1l-3.12,1.96c-7.57-1.38-11.87.21-12.9,4.78-.15,5.6-1.5,10.66-4.06,15.17-6.56.94-13.16,1.48-19.81,1.62-9.69.82-20.78.9-31.01.68-.23,0-.45-.36-.67-.82.43-2.18,20.4.2,22.82-1.32,1.34-2.22,4.53-3.48,6.58-5.01,5.61-4.2,5.33-17.35,20.85-18.01,12.74-.54,25.62,1.18,37.64-1.07,1.65-.31,2.08.36,3.17,1.22Z"/>
  <path class="cls-76" d="M136.7,16.47c.23,0,.51.15.72.07,1.28,2.48-.63,4.05-5.75,4.7-6.12,5.93-11.88,12.35-17.29,19.25l-1.37-.31c-.84.82-1.8,1.36-2.48.38-6.38-8.3-12.39-16.42-18.03-24.34,14.78-.37,29.51-.29,44.19.26Z"/>
  <path class="cls-111" d="M262.32,57.64c-1.99,5.52-4.96,10.54-7.97,16.71-6.7-6.55-13-10.27-21.87-11.59-24.19-3.61-61.39-5.56-84.54-.2-.24-.42-.44-.85-.48-1.29-.04-.42,6.14-4.22,6.54-4.36,36.32-.31,72.43-.07,108.33.74Z"/>
  <path class="cls-75" d="M95.78,56.59c.36.52.67,1.06.76,1.63.24,1.43-17.95,20.95-19.34,21.33l-50-1.51c-.53-.67-.41-1.34.25-1.99l-.1-1.26c1.64,1.08,3.76,1.05,6.14,1.02l21.48-.25c5.84-2.83,10.24-7.16,14.24-12.13,1.95-2.42,5.39-3.3,6.48-6.79,7.06-.36,13.51-.47,20.09-.05Z"/>
  <path class="cls-118" d="M85.91,88.25c-1.36,3.04-1.44,6.44-.25,10.19l-.76.73,2.19,1.24c1.34,6.12,1.25,11.8-.27,17.03,3.36,5.26-1.8,13.42-7.94,12.67-2.06-.25-4.05-1.25-3.7-3.52l-2.47-4.89c-1.26-8.86-1.62-17.61-1.07-26.25-2.71-1.48-1.47-4.82.49-6.45,1.21.56,1.75,6.12,5.62,5.64.67-.08,1.84-1.37,1.81-2.09-.24-5.02,3.76-4.37,6.12-6.28,1.01.55,1.09,1.2.23,1.97Z"/>
  <path class="cls-5" d="M287.11,17.62v.86s-3.59,2.52-3.59,2.52c-4.45,6.16-8.89,12.32-13.32,18.48l-1.63.32c-.68,1.31-1.56,2.04-2.62,1.06l-7.5-7.09c-.22-.41-.96-.96-1.35-1.22-1.6-1.72-1.85-3.07-.74-4.06l-5.12-7.37c-.07-1.57.59-2.34,1.84-3.08,3.68-2.17,28.46-.81,34.02-.44Z"/>
  <path class="cls-153" d="M38.64,90.89c3.93.78,10.02,5.53,12.78,8.61l.47,2.65c2.81-.32,5.98,2.46,4.14,5.18,1.73-.06,3.44.61,5.13,2.01l7.47-12.8,3.02-1.09c1.33,3.31,1.49,6.98,1.83,10.99l1.71,20.16c-1.45,1.54-2.75.93-3.88-1.83-1.7,1.62-2.23,1.66-4.11-.06l-12.8-13.53c-7-7.4-14.73-13.61-20.76-21.33,1.07-1.59,4.8-1.13,5.01,1.05Z"/>
  <path class="cls-64" d="M27.45,76.04c-.19.28-.2.8.27.79,16.39-.29,32.16.31,48.94.88l12.59-13.65c2.38-2.58,5.44-4.4,6.53-7.48.72-.54,1.9-.83,2.09-2.26h-47.99c-1.15,0-2.63.53-3.1,1.07,0-.44-.15-1.12.1-1.53.24-.38,1.05-.74,1.96-.73l54.88.54-26.03,27.8-51.05-2.25c-.94-.04.14-3.21.82-3.19Z"/>
  <path class="cls-79" d="M97.91,126.87c.14,3.24.83,5.89,2.08,7.96-3.73,17.3,8.93,31.95,26.31,30.71l1.16,2.09c3.86-.19,7.59-.89,11.21-2.1l3.31,1.87c.58-3.97,15.21-1.28,10.09,1.37-.15.57-.3,1.02-.47,1.03-5.8.28-17.23.71-21.31-.66,13.56.79,28.27,1,44.14.62-1.04-.27-.66-.63,1.15-1.08,2.29-3.26,12.34-3.71,14.24.05-2.22,4.22,17.54.45,17.52,2.94l-87.03.2c-7.54-.55-15.23-2.81-18.5-11.01-1.23-3.07-4.99-7.94-4.69-11.47,1-11.61-2.79-24.28.91-34.78.12,4.05-.54,8.23-.11,12.27Z"/>
  <path class="cls-62" d="M263.46,56.36c-36.04.75-72.25.93-108.64.55-.93,2.33-1.9,1.68-2.75-.55l-16.08.65-.55,1.38c-10.61.84-15.91,1.26-15.91,1.26l-2.02-2.03c-.46-.93-3.08-1.29-1.78-3.34l147.61.04c1.28,0,1.32.88,1.16,1.47-.1.37-.46.71-1.04.58Z"/>
  <path class="cls-56" d="M231.03,126.62c1.06,1.86-2.37,3.15-4.28,3.56.35.94.33,1.89-.45,2.38-9.35,5.82-21.36,6.89-32.08,6.72l-3.38.87-.81.17c-.17.82-.37,1.46-.66,1.51-4.87.78-12.26-.04-17.27-.66-.91-.11-1.38-.91-1.59-1.83l-7.02-1.78.7-2.54c3.89.26,10.23,3.34,10.35-.08,13.94-.6,38.09,3.45,49-7.18,3.95-3.84,8.55-5.98,12.58-8.8.72-.41,1.71-.76,2.48-.2,2.52,1.82-6.01,7.07-7.58,7.84Z"/>
  <path class="cls-121" d="M339.2,45.28c.71-.42,1.77-1.03,2.25-.65,1.84,1.44,12.55,11.86,12.58,13.3,0,.48-.2.96-.48,1.44l2.75-.1,8.17,9.38c6.15,4.27,7.6,7.63,4.34,10.09-.32.9-.7.89-1.13.01l-35.78-35.69c-9.44-9.42-18.24-19.57-27.46-29.66-1.27-1.39-3.66-1.5-4.19-3.18,3.24,1.03,7.2,2.69,9.82,5.62,9.43,10.58,19.41,19.89,29.13,29.43Z"/>
  <path class="cls-49" d="M67.19,124.71c1.68.14,2.85-2.5,4.77-1.85,1.96.67,1.76,3.38,3.22,3.74s3.51,1.68,5.22,1.67c4.36-1.86,6.88-6.51,6.42-10.82.46-3.07,1.45-4.72,2.95-4.94-.65,9.1.14,18.08,1.39,27.68,1.82,13.96-22.44-13.85-23.98-15.48Z"/>
  <path class="cls-82" d="M116.42,79.02l1.02,4.55c-6.55.26-12.89,1.42-19.01,3.49l-3.53-1.16c-2.53,1.58-4.17,1.69-4.91.34-.25-.9-.37-1.7-.02-2.15,4.42-5.78,12.62-15.8,19.12-17.58l7.34,12.51Z"/>
  <path class="cls-143" d="M152.07,56.36l-1.23,2.09-11.92,1.44c.24,3.05-.76,5.23-3,6.56-3.45,2.03-5.76,5.93-10.47,7.65l-7.94-16.48c3.54.28,7.1-1.28,11.14-1.28l23.42.02Z"/>
  <path class="cls-149" d="M84.57,24.51c5.39,4.55,8.19,10.5,12.4,15.25,2.26,3.16-.56,4.5-3.37,2.26-7.94,1.63-16.04,1.64-24.31.03-.89,2.88-9.86,2.7-8.35-1.02.7-.5.9-.94,1.2-1.08,4.59-.84,9.4-1.36,14.43-1.54-3.88-5.07-1.44-13.51,4.21-15.63,1.88-.71,2.79.25,3.79,1.72Z"/>
  <path class="cls-65" d="M263.46,56.36c-.22.49-.97.79-1.15,1.28l-107.67-.19c-.32,1.54-.11,2.35-.63,2.73.73-.54-6.96,2.71-6.09,2.37-3.75,1.44-8.5,1.81-12.02,3.89,1.3-2.48.58-4.8,0-8.77,5.39.78,11.25-1.31,16.16-1.31h111.39Z"/>
  <path class="cls-24" d="M137.76,41.91l31.68.14c4.55-.95,9.98-.8,14.31,0l.54,1.27-11.87.28,2.13.5c2.71.33,2.6,1.27,0,2.04l-48.85-.17c-1.66-1.53,1.38-2.91,2.05-3.76,3.25.98,6.64-.32,10-.3Z"/>
  <path class="cls-37" d="M84.57,24.51c-1.05-.37-2.26-.92-3.29-.53-.97.37-1.4,1.46-2.26,2.31-6.92,6.88,1.67,8.69-.93,14.08-.56.61-18.32,1.5-15.96-.42,5.31-6.55,11.26-11.74,17.05-17.62,1.17-1.19,3.3-1.5,4.34-.46.6.6.43,1.75,1.04,2.64Z"/>
  <path class="cls-124" d="M248.13,44.09c3.11-.86,5.13-.55,6.05.91.03.56.13,1.17-.94,1.17l-78.69-.03v-2.04c22.4-1.13,45.17-1.5,68.33-1.11,3.15-1.3,4.9-.93,5.26,1.11Z"/>
  <path class="cls-16" d="M115.23,97.25c-1.23-.66-2.16-1.89-2.77-3.68l-7.2-.56c-3.25.81-6.06.84-8.42.07-.03,1.46-.27,2.5-.72,3.11-.99-.68-1.11-1.79-1.59-2.39-.65-.82-2.65-1.2-3.41-.26-1.2,1.49-.33,3.42-.26,4.77-1.31.76-1.82.78-2.57-.28-3.9-5.44.46-11.57,6.62-12.13,7.05-2.08,14.23-3.06,22.06-2.9-.13-1.77-.6-2.82-.55-3.97,7.05,12.03-10.41,1.98-16.91,10.46,6.55,1.93,15.13-1.71,16.61,3.37.45,1.53.34,3.15-.88,4.4Z"/>
  <path class="cls-145" d="M94.9,85.9l-5.42,3.9c-2.69,1.93-.21,6.3,1.38,8.51,1.15,1.6,1.74,3.44,4.31,5.01-3.05,3.04-3.94,6.15-5.4,9.19-1.19,2.47-1.61,4.58-1.02,8.41-1.72-.85-.8-2.59-1.93-3.47l-1.92-18.27.74-.79c-1.5-4.62-1.18-7.77.96-9.47-.89-1.98,1.82-4.35,3.38-2.67,1.57-.33,3.37.11,4.91-.34Z"/>
  <path class="cls-54" d="M201.32,73.74c3.03,1.47,1.69,1.86-1.22,2.17-4.85-.46-51.54.56-55.18,5.13-.42.05-.87-.11-1.29-.08-2.06.65-2.41-.36-.87-1.96,10.18-4.32,32.24-5.62,43.34-5.35,6.75.16,10.34-1.85,15.23.09Z"/>
  <path class="cls-86" d="M278.87,111.74c1.55,1.73.95,2.26-.88.8-1.44,2.5-2.93,1.6-2.35-1.24l-1.92.41c-10.6-3.46-21.64.12-30.43,6.62.58,1.26,1.02,2.43-.4,3.44.51.86.15,1.17-.93,1.02,1.36,2.11.08,1.89-1.88,1.12-2.02,1.24-5.3,3.12-7.69,3.69-.36.09-.84-.37-1.36-.98l6.29-7.21c-.05-.38-.7-.48-1.19-.43,3.24-2.27,6.16-5.51,9.97-7.48,6.72-3.46,13.92-6.33,21.71-5.54,5.29.54,7.7,3.03,11.06,5.78Z"/>
  <path class="cls-4" d="M186.82,124.79c1.28,1.57.72,2.11-1.03,1.06-3.7.18-7.45.21-11.24.07-5.11-.93-9.58-3.01-14.23-6.13-6.73-4.52-13.75-8.25-20.8-12.2-2.4-1.35-5.31-1.22-6.86-3.3,2.77-.57,5.04,1.45,7.81,2.29,19.87,6.04,17.64,13.87,39.38,17,2.34.34,5.26,1.56,6.96,1.22Z"/>
  <path class="cls-95" d="M136.7,16.47l-44.16.1c3.51,4.7,7.46,8.2,11.34,12.37,3.47,3.74,4.94,8.92,9.14,11.23,1.67.45,1.44,1.45.42,2.61-.48.37-.78,1.44-1.56,1.04-.55-.29-1.57-.73-2.09-1.45l-18.85-26.5,43.74-.46c1.03-.01,2.32.25,2.01,1.06Z"/>
  <path class="cls-3" d="M332.98,56.43c.43.88.08,1.13-.96.86-2.14.84-7.13,2.08-7.54-1.01l-19.84-.35c-.53.74-1.07,1.32-1.65,1.35-3.28.21-14.93.85-16.82.02l-3.29-2.05c-.06,1.12-.74,1.12-2.05.02.09,1.75-.71,2.1-1.92.84-1.02-1.31-1.36-2.2-1.97-3.74,11.23,1.43,39.12,1.3,50.83.38,3.75-.29,3.71,2.33,5.22,3.67Z"/>
  <path class="cls-110" d="M72.14,89.01c.12,2.16,0,4.33-.49,6.45-3.4,5.6-6.09,11.48-10.3,17.18-2.25-2.09-4.2-3.31-5.31-5.3,3.3-4.96,6.62-10.01,9.96-15.16l3.3-1.07c-.89-.29-.88-.63,0-1.02l-.5-.54c-3.71.52-5.25,0-4.61-1.55,2.7,0,5.59-.61,7.96,1.02Z"/>
  <path class="cls-40" d="M230.8,109.59c1.43-.69,2.85-1.07,3,.85l-18.58,13.1c-1.64,1.16-3.4,1.04-4.9,1.36-6.77.77-13.57,1.63-20.39,2.57-1.45-.99-.62-2.52,2.51-4.59,6.34-1.34,12.7-2.03,19.05-2.09.15-2.38,6.47-6.97,8.77-8.04l2.4.81c-.07-3.57,5.34-5.27,8.14-3.96Z"/>
  <path class="cls-134" d="M113.44,42.78c-.52-.79-.92-1.73-.42-2.61,6.47-7.41,13.98-21.87,20.93-21.55l2.86.13c.52.02.73-1.47.61-2.21,1.05-.44,1.7.97,1.63,2.19-9.18,7.82-16.45,17.05-25.61,24.06Z"/>
  <path class="cls-20" d="M286.97,16.5c-12.2.13-24.62.87-37.24,2.2,2.39,3.13,4.61,6.4,6.65,9.81.76,1.21.97,2.65.74,4.06-5.97-4.01-11.24-9.67-15.13-16.66l42.96-.53c1.06-.01,2.1.43,2.02,1.13Z"/>
  <path class="cls-113" d="M287.1,18.49c-1.7,2.19-3.4,4.83-4.39,7.37-.88.31-1.29,1.45-1.87,2.07-4.72,5.03-7.3,11.78-12.58,16.23-2.67-2.16-3.87-4.54.32-4.35,2.59-6.16,7.47-10.96,11.48-16.77,1.92-2.78,3.53-5.32,7.05-4.55Z"/>
  <path class="cls-105" d="M96.97,39.76c1.41,1.59,2.69,2.63,2.33,5.03-6.46.47-12.67.82-18.77.43-3.54-.91-7.2-1.47-10.96-1.68l-.28-1.49c7.57-.29,15.26-.4,23.08-1.11.4-.04-.4-2.02-.17-2.33.3-.4,1.03.05,1.3.34l1.09,1.17c.66.7,1.12,1.22,1.83,1.2s.46-.99.54-1.56Z"/>
  <path class="cls-108" d="M286.97,16.5c1.19-.14,1.32,1.31.15,1.12-6.69-.14-26.3-.64-32.51,1.62-4.71,1.71,4.58,9.09,1.78,9.27-3.25-2.27-6.94-8.55-12.85-11.82l43.44-.18Z"/>
  <path class="cls-80" d="M115.23,97.25l-.96.98c-1.48.71-3.04.7-4.63.6-3.22-.22-15.11-1.59-12.79-5.75,3.36-3.02,15.37-2.31,16.97-1.09,1.42,1.09,1.65,3.33,1.42,5.26Z"/>
  <path class="cls-22" d="M109.08,66.51c.69,1.88-1.7,1.46-2.68,2.33-6.16,5.47-11.77,11.11-16.41,17.4-.87.89-3.02,1.08-3.38,2.67-.77.56-.99.31-.7-.67-.01-.66-.09-1.32-.23-1.97,7.07-5.73,19.73-23.22,22.5-21.42.45.29.57,1.1.89,1.65Z"/>
  <path class="cls-87" d="M254.18,45c-2.07,1.02-4.34-.91-6.05-.91.41-1.6.59-1.63,1.59-.9.31.23-5.24-1.05-3.61-5.07l-2.95-.5c-2.72-3.01-5.08-6.28-7.07-9.81-3.26.07-8.25-5.07-8.05-8.33-.4-.31-.41-.59,0-.86.64.41.69-.46.79-.91,8.54,6.75,14.77,15.94,23.15,23.51,1.29,1.16,2.13,2.37,2.21,3.77Z"/>
  <path class="cls-117" d="M142.76,79c.21.69.49,1.35.87,1.96l-6.17,7.81c-1.79,2.27-10.6,14.22-13.94,8.72-1.11-1.83.55-2.34,1.04-3.41.21,1.1-.87,2.56.8,3.7,6.6-5.6,11.2-11.86,15.91-18.31.34-.46,1.2-.35,1.49-.47Z"/>
  <path class="cls-92" d="M64.18,87.99c.33,1.49,2.43,1.08,4.06,1.07,1.46-.31,2.83.55,1.05,1.02-4.25.41-8.64.7-13.19.87-.17.67-.36,1.19-.59,1.21-2.9.24-6.6.13-9.55.02-2.87.65-4.82.38-7.33-1.29-1.66-.32-3.27-1.09-5.01-1.05-1.73-.56-.78-1.91.74-1.81l29.82-.03Z"/>
  <path class="cls-36" d="M300.5,22.94c2.1,2.22,1.54,2.8-1.02,1.14l-.1,2.13c-3.66,4.1-7.12,8.53-10.35,13.28l-2.99,1.27c-1.25,3.07-2.92,3.84-5.02,2.3l11.89-17.29c1.39-1.12,3.24-3,4.67-4.71,1.24-1.48,2.25,1.23,2.93,1.89Z"/>
  <path class="cls-144" d="M303,78.74c.89,1.4-.31,1.24-1.75,1.03-2.95-2.51-5.75-5.25-8.31-8.18-2.88-3.3-5.48-6.91-9.26-9.91-2.15-1.71-3.37-3.78-4.78-5.58.42-.61,1.21-.82,1.92-.84,7.58,7.31,15.11,15.58,22.17,23.47Z"/>
  <path class="cls-59" d="M281.7,72.99l12.18,14.17c.04,4.2-4.93,2.27-3.99-1.25-5.3-2.9-11.71-9.48-15.39-14.5l-.71-3.78c-.95-1.28-.46-1.82.77-.95,1.54,2.44,5.46,4.01,7.14,6.31Z"/>
  <path class="cls-60" d="M248.12,81.78l1.48.57c1.59,5.27,6.6,8.77,8.71,13.83,1.41,2.91-1.16,2.32-3.37.78-4.96-6.25-10.36-12.05-16.21-17.41l.28-1.43c3.53-.11,6.37,2.22,8.48,5.87.58-.62.49-1.5.63-2.22Z"/>
  <path class="cls-150" d="M307.55,28.63c2.84,3.8,5.91,7.56,9.77,10.39,2.69,2.89-.64,4.33-1.98,1.37l-3.79-.97c-4.16-4.28-8.33-8.57-12.51-12.86l.44-2.48c.56-.12,1.95-.2,1.02-1.14,1.6,1.58,5.57,3.71,7.04,5.69Z"/>
  <path class="cls-138" d="M134.6,181.17c-.45.66.37.84,1.15.84l24.49.04.13.86c-3.53.34-6.96.79-10.27,1.35-.09.92-.42.92-.95.08-1.03,1.6-2.86,2.17-5.48,1.7-3.07,1.9-6.04,1.21-8.91-2.09-.68-.97-2.68-1.07-2.96-2.53l2.8-.24Z"/>
  <path class="cls-83" d="M274.56,66.68c.56.74-.48.66-.77.95l.67,2.35c-2.4,3.94-4.37,8.13-5.9,12.55l-2.87,1.22c-.02.45-.46.79-1.31,1-1.85-.38-.72-3.88.1-4.99,4.72-6.43,6.93-18.08,9.05-14.71l1.04,1.64Z"/>
  <path class="cls-31" d="M211.5,120.78c-6.66,2.33-13.69,2.87-21.3,4.68.9,5.07,16.04-4.78,20.12-.57-7.06,1.48-23.42,5.89-29.64,1.98,1.36-.39,3.06-.73,5.11-1.02.28-.39.79-.62,1.03-1.06.75-.15,2.26.68,2.98.06.45-6.49.83-13.01,1.13-19.56,7.22.33,13.35,6.61,15.44,13.33,2.54-.37,4.25.35,5.13,2.15Z"/>
  <path class="cls-137" d="M69.29,42.05c8.46,2.38,8.62-.38,11.24,3.17-6.81-.43-29.02,2.58-19.59-4.19,2.08,2.34,5.65.25,8.35,1.02Z"/>
  <path class="cls-98" d="M246.38,104.18l.05,1.14c-4.15,1.01-8.99,2.55-12.63,5.12-1.08.1-2.2-.06-3-.85-1.76-2.66,3.61-6.98,6.15-5.32-.6-3.71,8.66-2.81,9.43-.09Z"/>
  <path class="cls-66" d="M114.27,98.24c-4.36,4.45-12.9,1.54-18.15-2.05-.05-1.18-.18-2.29.72-3.11,0,.93-.16,2.27.91,2.75.62.28,1.58.11,2.55-.06,5.09-.87,9.36,1.75,13.96,2.47Z"/>
  <path class="cls-17" d="M268.58,39.81c-.65,1.55-1.93,2.64-.32,4.35-4.07-2.25-7.62-6.27-9.79-10.37,3.74-.02,5.89,6.6,10.11,6.02Z"/>
  <path class="cls-126" d="M185.79,125.85c-1.17,1.62-3.34,1.01-5.11,1.02-1.74-.04-4.35-.63-6.13-.95.14-3.04,8.95.77,11.24-.07Z"/>
  <path class="cls-14" d="M204,244.72c.97-.18,1.12-.04.77.9,2.01-.06,1.97.8-.02,1.35-3.71,5.01-8.21,9.7-13.7,12.72-1.26,2.38-3.73,1.5-7.41-2.63l-1.91.73c-1.55-1.49-3.22-2.29-5.01-2.38-12.36-13.02-26.04-24.97-37.86-38.4,1.69-.8,3.45-1.61,5.29-2.43,1.88,1.88,2.51,1.87,1.87-.02l43.9,42.73c4.83-4.75,9.94-8.32,14.1-12.57Z"/>
  <path class="cls-43" d="M228.36,231.4l-37.77,38.63-13.88-14.62c.6-.62.83-1.72,1.74-2.1,1.8.87,2.34,2.59,4.1,3.1-1.18-2.27-.27-3.43,1.18-2.08,2.34,2.25,5.63,5.32,7.31,5.36,5.49-3.12,9.95-7.69,13.7-12.72l.02-1.35c8.18-8.94,17.09-18.21,26.22-26.64.36-.34,1.09-.27,1.93-.09.47-.44.94-.78,1.4-.77,3.97.03-5.55,9.94-6.71,10.97l.75,2.32Z"/>
  <path class="cls-84" d="M131.66,200.32c5.65,3.6,9.66,9.68,14.34,14.24-.36.85,1.03,1.01,1.02,1.49-.02.8-1.85.38-2.37.44-1.14.13-1.38,1.99-2.36,1.9-1.34-.13-2.33-1.05-3.44-1.38-4.97-5.65-12.02-10.23-17.46-15.53-1.74-1.69-3.06-4.06-5.27-5.99-8.76-7.62-16.73-15.55-24.31-23.82,1.67,1.48,4.45-.33,6.39.56,3.13,1.44,2.93,5.48,4.29,8.6,4.16-2.04,6.81.78,9.67,3.46,5.5,5.13,11.22,9.63,16.2,15.34,1.03,1.18,2.41,1.28,3.31.71Z"/>
  <path class="cls-112" d="M296.07,162.86l-25.14,25.24-1.74-.95c-10.15,10.11-20.25,20.25-30.31,30.43l.06,2.35c-2.78,4.4-6.93,7.73-10.58,11.46-1.59-.57-2.88,1.12-5.2-.44l9.85-10.91c.95-.29,1.05-1.47-.1-1.17l-.8-1.05c22.05-21.83,43.92-43.85,65.6-66.07l1.41.41c.68-.5,1.51-1.09,2.25-.92,3.31.77-4.51,8.31-5.93,9.09l.62,2.51Z"/>
  <path class="cls-101" d="M270.93,188.1l-24.75,25.79c-2.1,2.19-5.53,3.34-7.24,6.04-.84-.2-2.09-.82-2.23-1.6-.2-1.12.87-1.54,1.56-2.28,1.29-1.37,38.17-41.95,35.29-32.57-2.6.7-2.13,3.35-2.63,4.61Z"/>
  <path class="cls-100" d="M357.24,56.49c7.73,6.68,15,13.84,22.06,21.83.68.77,3.28.16,2.43,1.74-1.48-.31-2.7.46-3.96,1.67l-5.82,5.6-75.88,75.53c-1.74-.47-3.6,1.03-5.48.3.51-3.15,13.55-11.66,8.54-10.99l-.8-1.04c24-23.77,47.49-47.9,70.49-72.39-.34-1.12.36-3.52-1.46-4.83-5.46-3.93-9.35-10.19-13.79-14.54-1.97-2.91,1.31-5.67,3.68-2.88Z"/>
  <path class="cls-122" d="M357.24,56.49c-1.72.12-2.65,1.66-3.68,2.88l-14.35-14.09c1.02-.83,1.58-2.23,2.12-3.69,1.74-1.21,17.19,15.99,15.92,14.9Z"/>
  <path class="cls-104" d="M291.95,127.82c1.06,1.39,1.78,1.76,2.17,1.1.06-3.44.4-6.97,1.03-10.6-1.14-8-1.28-15.98-.42-23.94l2.28-1.23c2.16,4.43.98,10.13,4.14,14.56,1.87,1.45,6.69-2,6.47-4.43l2.23.67.37,7.52c-.63,5.51,2.49,4.22,9.36-3.88l3.12-.19c2.77-7.22,11.28-14.23,18.42-17.33-.07-.55-.14-.98-.22-.98-10.49-.17-21.1.09-31.61.46l-.69-1.36c11.62-2.83,24.85-.26,37.18-1.4,2.09,3.05-.51,5.86-2.82,7.21-5.47,3.18-27.75,26.41-32.98,32.45-1.78,2.06-5.56,2.28-6.58,5.48-1.82,5.72-6.11,9.86-12,11.3-.47-5.7-1.08-10.74.54-15.42Z"/>
  <path class="cls-18" d="M299.13,152.17l-66.21,66.71c-6.49,6.54-14.11,12.17-20.22,19.74-2.32,2.87-5.17,5.21-7.93,7-.77.66-1.52-.2-.77-.9l28.58-29.22,44.45-44.03c10.14-10.05,19.97-20.6,29.34-31.27-1.73-2.43-.22-3.54,2.37-2.19,19.92-19.43,40.17-38.76,58.95-59.26h1.13c.38,1.24.33,2.45-1.32,4.12l-68.37,69.3Z"/>
  <path class="cls-147" d="M284.23,125.93c-1.03,3.35.48,7.15-.27,10.46,1.21,1.88,2.16,6.27-.41,6.76-.66,7.56-5.58,13.36-12.41,16.33-.91.49-1.12-.2-.63-2.08-2.31-3.72-4.88-9.56-5.09-14.18-.45-1.43.32-3.38-.93-4.64-1.39-1.39-3.54-.5-6.31-1.92,1.04-.95,2.65-.5,3.3-1.73l.5-1.46c4.83-.8,8.98-2.72,12.43-5.76l2.28.21c.79-3.77,2.99-5.27,4.12-1.02l.99.18c-.43-3.65.18-4.76,1.85-3.34-.07.68.78,1.56.59,2.2Z"/>
  <path class="cls-13" d="M341.13,90.08c-5.78,6.08-12.31,11.52-18.42,17.33l-2.49,1.07-7.86-10.6c.31,4.17-3.94,7.63-4.39,2.66.57-4.08-2.45-8.91.64-12.34l2.14,1.08,29.68-.18.7.98Z"/>
  <path class="cls-51" d="M289.89,85.91c1.29-.04,2.83,3.06,3.99,1.25,3.15.57,2.13,3.93,3.14,5.99-3.48,19.47,3.27,11.29-2.9,35.77-2.07.53-.34-2.4-.35-2.24-.07,1.8-.61,2.76-1.82,1.15,1.16-3.37,3.23-8.09,1.44-11.37s-2.36-6.77-4.5-9.79c-.99-1.39-2.55-2.47-2.61-3.9-.16-3.39,5.23-5.89,3.64-10.87-1.44-4.53-8.65-5.27-9.15-6.97,1.91-3.73,6.43-.94,9.12.98Z"/>
  <path class="cls-142" d="M273.79,67.63c5.47,6,11.34,11.7,16.1,18.28-3.09.09-6.04-.85-9.12-.98l-1.02-.04c-4.91-.1-9.6-.48-14.06-1.14,2.89-5.37,4.14-11.96,8.1-16.12Z"/>
  <path class="cls-94" d="M322.71,107.41c-3.37,3.21-6.67,6.9-10.54,9.99-5.24,4.19-3.85-14.75-4.54-14.12-.19-.67.24-2.01.34-2.74.28.36,1.69.78,2.03.3l.88-8.43c.59-.38,10.62,16.7,11.83,15Z"/>
  <path class="cls-93" d="M301.25,79.77l1.75-1.03,11.46-1.04c12.12.1,24.1-.64,35.95-2.21-1.26-1.61-1.08-2.19.53-1.75.9,1.01,3.79,3.1,2.15,4.82-8.42,2.4-17.46.58-26.31,1.45-5.47.54-22.69,2.16-25.52-.24Z"/>
  <path class="cls-41" d="M290.93,45.08c7.55,2.95,15.42.16,26.23,1.2-1.47,4.06-5.29,1.09-8.15,6.01-3.78-11.21-25.43,3.62-25.03-7.21.32-1.73,5.96-1.82,6.95,0Z"/>
  <path class="cls-6" d="M286.04,40.75c1.74,3.04-.59,1.35.41,1.15l30.04-.09c2.3-1.07,4.48,1.14,3.05,3.31l-28.62-.05c-2.09-.81-4.8.19-6.95,0-1.15-.07-2.35-.08-3.79-.36-.49-1.07.48-1.23.84-1.66,1.86.07,3.29-2.05,5.02-2.3Z"/>
  <path class="cls-73" d="M319.54,45.12c.31-.5.36-2.04-.88-2.04l-33.7-.03c.29-1.05.78-1.65,1.08-2.3l3.51-1.94,13.74.26c4.5-.78,8.52-.34,12.05,1.32.49-.06,1.41.48,1.88-.09.25-.29.03-1.01.09-1.29,1.74,1.28,4.77,4.62,2.23,6.1Z"/>
  <path class="cls-103" d="M271.14,159.48c-.14,5.94-9.83,7.13-10.74,7.13-4.91.02-9.88.51-14.2-1.93-1.4-2.01-1.18-3.62.94-1.98l2.12-1.36c5.67,1.8,11.63.32,17.2-1.25l2.05,1.54c.16-2.49.83-3.9,2-4.23.09.69.65,1.38.63,2.08Z"/>
  <path class="cls-52" d="M282.9,96.21c-2.93,2.93-16.02,5.11-16.39,1.81,1.63-5.31,2.55-5.44,7.87-5.51,1.31-.02,5.79.31,6.56.79.1.06-2.18.48.68-.19.94.79,1.43,1.82,1.27,3.1Z"/>
  <path class="cls-136" d="M281.63,93.11l-.15,1.24c-3.74.23-8.38-1.3-12.08.77-1.11.62-1.04,3.83-2.89,2.91-.25-2.25-.03-4.49.14-6.74,6.04.21,10.92-1.57,14.98,1.83Z"/>
  <path class="cls-116" d="M308.73,138.01c-.69.67-1.78,1.52-2.37,2.19-1.71-.66-3.02-2.64-3.03-4.64,0-1.25,2.27-3.04,3.86-2.79,2.48.39,2.33,3.5,1.54,5.24Z"/>
  <path class="cls-44" d="M343.06,66.64c.55.77.29.98-.68.7-4.29.8-11.29-5.71-10.37-10.06.33-.27.65-.55.96-.86,3.66,3.27,7.17,6.4,10.09,10.22Z"/>
  <path class="cls-7" d="M350.94,73.74c.04.61-.43,1.2-.53,1.75-1.35,1.96-3.82.52-3.09-1.58-2.02-1.62-3.63-3.44-4.83-5.49-.89-.21-.91-.57-.11-1.08.24-.22.47-.45.68-.7,1.62,2.12,6.07,5.09,7.87,7.1Z"/>
  <path class="cls-116" d="M283.55,143.15c.2-2.33-.13-4.39.41-6.76,3.35,1.53,2.94,5.72,1.56,9.83-1.24-.66-1.64-1.81-1.97-3.07Z"/>
  <path class="cls-116" d="M289.01,155.85c-1.92,1.26-3.24.33-3.84-.9-.48-.96.05-3.46,1.73-3.27,1.53.18,2.19,2.35,2.11,4.17Z"/>
  <path class="cls-51" d="M279.75,84.88l-6.15.2c-3.03.1-6.22.27-9.22-.34-.49-.77.77-1.04,1.31-1,2.62.23,16.21-.23,14.06,1.14Z"/>
  <path class="cls-107" d="M246.38,104.18c-2.75-.58-7.17-1.86-9.43.09-7.26.16-14.62-.06-22.09-.67l-4.63-2.22-2.31,1.9-14.8-1.01-2.24-1.89c1.01-.77,2.2-1.3,3.09-2.21,8.3.37,16.63.16,25.5.89l25.51,2.1c1.04.09,2.29.47,2.45,1.55.09.57-.43.94-1.06,1.48Z"/>
  <path class="cls-91" d="M258.31,96.18c.52.12,1,.23,1.09.63.16.7-.24,1.49-1.12,1.6-3.49.47-5.8-1.21-7.84-3.51l-12.53-14.14c-2.47-1.28-2.68-1.86.13-2.66.3.07.65.04.96.03,5.43,3.19,14.77,12.79,18.09,20,1.61-.07,1.36-1.36,1.21-1.95Z"/>
  <path class="cls-114" d="M203.06,73.65c3.46.55,6.93.89,10.41,1.01,8.33-.11,16.47,1.62,24.58,3.44l-.13,2.66c-2.65-1.12-6.47-1.87-9.73-2.18l-28.09-2.67c.75-.48,1.2-1.28,1.22-2.17.48.19,1.22-.1,1.74-.09Z"/>
  <path class="cls-85" d="M283.64,123.73c-1.91-1.55.06,14.61-1.18,14.52-2.57-4.03-1.23-7.69-1.66-11.36-3.04-1.02-3.23-6.01-.17-7.1-2.93-2.57-3.8-4.98-2.63-7.24.49-.05,1.28-.04.88-.8,3.76,3.08,5.32,6.75,4.77,11.99Z"/>
  <path class="cls-127" d="M220.43,186.19c-8.53,12.24-15.58,25.28-21.86,39.26-1.23,2.74-2.22,5.15-2.34,7.87l-.08,1.81c-.32.28-1.1.35-1.11.68-.02.78-1.7.17-1.4-.69,2.21-6.26,3.25-13.07,6.36-18.45l-.88-2.56,13.13-22.65c1.83-4.25,4.26-6.33,7.28-6.24,1.41-1.35,1.96-.74.89.96Z"/>
  <path class="cls-126" d="M210.23,101.37c5.68.76,10.52,7.2,12.44,12.17-3.66,2.44-6.92,5.74-11.17,7.23-2.21-.11-4.38.26-7.03-.45-1.03-6.73-6.23-11.02-12.97-13.6-1.65,6.1.86,15.91-1.69,18.12.49-8.17-.75-16.52,1.08-24.48,6.48-.65,12.87.7,19.35,1Z"/>
  <path class="cls-42" d="M190,143.19c12.1.52,28.5-1.79,36.05,2.21,4.84,1.71,12.79,11.3,9.72,17.25v1.38c-28.35,1.32-56.76,1.89-85.24,1.73-3.81.47-5.76-.62-5.83-3.28-1.95,1.35-2.96.29-2.73-2.04.31-3.03,11.36-18.53,16.03-17.13l1.09-1.51c9.77-.66,19.71-.65,29.8.03l1.11,1.36Z"/>
  <path class="cls-42" d="M258.23,142.16c3.03-.65,5.37,1.18,6.47,4.15,3.18,3.25,5.85,10.39,3.81,15.32-6.91,1.99-14.59,4.1-21.37,1.07-.66.16-1.21.23-1.4,0-3.57-4.32-8.67-11.34-11.85-16.03-.21-.31-.12-.81.05-1.37-.08-.86.53-1.35.97-1.95,7.55-1.55,15.9-1.9,23.33-1.2Z"/>
  <path class="cls-96" d="M274.89,122.81c2.77,4.7-3.91,7.8-7.69,9.19-11.75,2.89-23.59,4.61-35.5,5.16-1.28,2.34-5.63,1.92-8.03.8-.25-.59-1.06-1-.99-1.78.4-1.73,1.74-3.03,4.01-3.9,8.11-4.42,18.86-9.45,27.57-10.49,1.69-3.42,11.89-5.36,15.75-5.08s8.57,2.86,4.87,6.1Z"/>
  <path class="cls-12" d="M237.84,163.7c-.74,1.44-1.85,2.28-4.07,2.33l-40.84.81c-1.6.03-2.64.93-3.11,1.9-4.72-.74-9.5-.07-14.24-.05-.1.39-.23.75-.47.98-.82.75-19.85.25-22.35.14-.24-.01-.47-.46-.68-1.02,4.25-1.19-13.12-1.2-10.09-1.37-3.92-1-.52-7.91,2.73-4.93,2.02,1.36,4.52,1.24,7.44,1.23l79.54-.28c1.71,0,2.93-.62,4.09-.78,1.34-6.98,3.61-3.86,2.08,1.05Z"/>
  <path class="cls-125" d="M276.68,127.91c-3.59,4.39-9.57,6.13-15.2,7.01-8.51,1.34-16.99,3.07-25.61,3.19-3.44,1.15-4.83.84-4.17-.96l32.69-6.08c4.9-.91,9.54-3.83,10.5-8.27,3.94-2.79,5.53,2.82,1.79,5.1Z"/>
  <path class="cls-2" d="M254.27,121.79c-11.54,2.7-21.13,9.24-31.58,14.39-9.64,4.75-21.78,1.87-31.84,3.97.97-1.39,4.13-1.38,6.03-1.01,5,.98,8.41-.82,12.52-1.77,6.64-1.53,12.34-2.9,17.36-7.19,4.63-1.91,9.07-4.01,13.34-6.28l1.88-1.12,12.42-3.38c.73.75.64,1.55-.13,2.39Z"/>
  <path class="cls-151" d="M170.52,139.34c6.48.6,13.25,2.28,19.51.98l-.03,2.88c-5.29-.23-10.69.33-16.49-.25-5.42-.54-10.6-.28-15.51.36-2.8,1.09-4.41.99-4.83-.3-2.67-3.94,3.84-4.84,7.07-3.76,2.03-2.5,5.46-2.47,10.28.08Z"/>
  <path class="cls-45" d="M233.94,145.31c6,6.41,7.82,11.51,13.2,17.4-1.08-.05-1.05,1.19-.94,1.98-1.73-.98-1.81-3.22-3.13-4.96-4.36-5.74-8.56-11.08-13.33-16.28,1.86-.25,3.27.88,4.19,1.86Z"/>
  <path class="cls-68" d="M237.84,163.7c-.1-1.45.54-3.03-.4-4.33-.87,1.65-.69,2.74-1.68,3.28,2.12-4.51-6.46-15.52-9.72-17.25.33-.61-.3-1.05-.25-1.98,6.16,4.13,10.55,9.9,13.1,17.19.62,1.77-.66,2.32-1.05,3.09Z"/>
  <path class="cls-35" d="M258.23,142.16c-7.68,1.65-15.51.8-23.33,1.2,2.24-3.08,21.68-2.67,25.47-2.76-1.02.96-2.14.47-2.14,1.56Z"/>
  <path class="cls-77" d="M270.51,157.4l-2,4.23c-.11-1.71.45-3.77-.29-5.78l-3.52-9.54c.21-.96-.47-2.69.72-3.09,1.51,4.83,4.45,9.14,5.09,14.18Z"/>
  <path class="cls-29" d="M231.7,137.16c.62,1.55,2.81,1.02,4.17.96-1.24,1.08-10.84,3.07-12.2-.16,2.68.12,5.39-.3,8.03-.8Z"/>
  <path class="cls-21" d="M144.14,136.05c.52-3.17,4.22-2.4,3.84.91,3.9,1.05,7.62,1.52,10.57-1,.82-.7,3.6,1.56,1.7,3.28-3.1.2-6.05,1.16-7.07,3.76.45.68.44,1.25,0,1.81-5.46,6.8-10.5,13.36-14.76,21.05-3.59.93-7.24,1.51-10.95,1.76-4.38-.24-9.75.33-14.31-2.1-5.37-2.87-12.42-8.59-14.32-14.69-2.5-8-.11-16.28-.92-23.97,2.18-.09-.18,6.08,2.21,7.35,3,1.59,10.41-3.69,13.46,4.91,5.27-1.64,9.91.25,15-.04l14.29-.84c1.26-.07,2.33-.35,1.76-1.32-.18-.3-.05-.53-.5-.88Z"/>
  <path class="cls-34" d="M152.16,131.75c.58-1.54,2.57-.41,2.84.95,10.99,4.5-1.03,6.16-7.02,4.26-.82-.91-2.76-.76-3.84-.91-3.05-.45-6.35-.38-9.36-1.17-3.57-.07-7.01-.73-10.31-1.97-6.58-.39-12.73-2.25-18.51-5.32-2.63-1.92-2.21-8.52,1.43-8.11-.1-2.02.75-2.3,2.43-2.64,6.58-1.35,29.81,7.89,35.67,10.55,2.87.79,5.09,2.24,6.66,4.37Z"/>
  <path class="cls-120" d="M152.16,129.14c1.79,1.6,1.79,2.47,0,2.61-10.47-4.13-20.91-8.19-32.14-11.61-4.37-1.33-8.81-3.24-12.62-.66-3.13.89-2.78-2.81-.25-3.92,4.01-.75,11.43.33,16.17,2.03l20.69,7.43c2.96,1.06,5.73,2.72,8.15,4.13Z"/>
  <path class="cls-152" d="M164.2,135.02c2.04,4.01,7.13,2.51,6.32,4.31-3.34-.31-6.93-.3-10.28-.08-.46-3.13-9.44.86-12.27-2.28,3.38.03,6.75.64,10.43-.51l-3.41-3.75,2.03-.73c2.38,1.39,4.23,2.84,7.17,3.04Z"/>
  <path class="cls-21" d="M107.15,115.56c-1.38,1.1-.19,2.76.25,3.92-.93,2.56-3.91,5.82-1.43,8.11-3.41-1.82-3.17-6.71-1.51-10.63.44-1.05,2-1.27,2.69-1.4Z"/>
  <path class="cls-21" d="M157.03,131.98c.32.4,0,1.52-.44,1.45-.66-.11-1.26-.6-1.59-.72-.95.09-1.99-.62-2.84-.95v-2.61l4.88,2.84Z"/>
  <path class="cls-21" d="M134.78,134.88c-3.53.24-7.73.76-10.31-1.97,3.51.21,6.96,1.09,10.31,1.97Z"/>
  <path class="cls-70" d="M220.43,186.19c-.24-.34-.71-.58-.89-.96-9.25,1.01-18.68,1.42-28.29,1.2l-1.52-2.02c-4.88,2.66-14.69,2.93-19.26-.31-2.76-.68-8.76-1.6-9.25,1.37-1.07.6-11.03,1.66-11.12-1.21-1.24-2.63,8.85.24,10.14-2.2h83.68c.04.99-.94,2.01-1.85,2.01h-18.48c-1.88.01-2.51,1.18-3.17,2.12Z"/>
  <path class="cls-54" d="M213.47,74.66c-3.5.05-7.59,1.06-10.41-1.01l9.27.19c.78.02,1.57.14,1.14.82Z"/>
  <path class="cls-81" d="M170.46,184.1c6.42.12,12.87-.32,19.26.31l2.05,1.15c2.45,15.66-1.89,23.38-13.02,23.17l-.35.68c2.33,3.02,3.47,6.17,3.42,9.46,2.29,3.48,6.6,15.12,5.5,17.94-7.69-6.83-14.82-13.08-20.99-20.27l1.44-1.9c3.69.5,2.75-9.28,1.89-12.39-1.81-2.42-2.65-4.67-2.53-6.74-7.98-6.96-11.27-14.3,3.33-11.42Z"/>
  <path class="cls-27" d="M219.54,185.23c-2.76,2.79-5.03,6.33-7.2,10.1l-12.33,21.35c-1.83-2.92-4.78-4.96-7.69-7.63-3.9,8.22-11.62,2.57-10.5,9.84-2.28-3.46-4.57-6.92-6.74-11.51,2.7-1.16,5.02-.42,7.55-.73,4.57-.57,7.15-4.07,7.13-8.44l-.04-13.78,26.81-.45c1.48-.03,2.55.29,3,1.27Z"/>
  <path class="cls-141" d="M170.46,184.1c-2.84-.05-5.78-.12-9.1.22l5.77,11.2-1.94,1.24c-1.27-.91-2.91.52-4.93,4.3-2.11,3.02-4.18,3.82-6.21,2.4-3.01-3.91-8.44-6.16-10.22-11.07.44-.9,1.37-1.49,2.76-1.77.01-3.44.86-5.53,2.55-6.29.3.04.64-.09.95-.08,6.83.12,19.96-2.68,20.36-.16Z"/>
  <path class="cls-50" d="M167.14,195.52c6.85,5.28,5.65,13.23,4.18,21.14-2.05.69-3.42-.08-4.99-.11-3.93-4.58-8.61-8.32-12.28-13.09,4.01-2.12,6.78-5.86,9.02-10.83,1.44,1.9,3.14,2.17,4.06,2.88Z"/>
  <path class="cls-146" d="M149.15,184.34c-.17,2.73.87,7.9-2.81,8.65-.72.15-1.69-.23-2.51-.6-2.61-2.67-6.81-5.19-9.07-8.45,1.58.66,3.02,1.36,4.27,2.57,2.56-3.39,6.7-2.66,10.12-2.18Z"/>
  <path class="cls-139" d="M209.33,18.52l.92,2.1c-5.03,5.8-9.08,12.17-12.15,19.09l-1.81,1.06c-1.62.52-3.41.95-5.38,1.28-.84,1.66-6.11,1.56-7.15,0h-14.31c-.17-2.35,11.96.04,16.17-1.56,7.85-2.98,2.54-19.44,9.52-21.35,4.73-1.29,9.74-.66,14.2-.62Z"/>
  <path class="cls-1" d="M221.6,18.63c1.67,1.5.77,3.47-2.69,5.9-3.17,5.87-7.37,12.56-12.46,16.29-.62.88-1.43.93-2.26.21-2.2.87-5.84.85-7.9-.25-2.02-3.05,10.67-19.45,13.05-22.25l12.27.1Z"/>
  <path class="cls-88" d="M228.03,18.63c.5.28.51.57,0,.86l.45,1.31c-2.37,6.49-4.23,13.24-5.57,20.25-3.04,1.41-12.92.47-16.47-.23,0-5.15,4.41-4.88,10.4-16.81,1.1-2.19,3.92-3.3,4.75-5.38,2.14.02,4.29-.17,6.43,0Z"/>
  <path class="cls-78" d="M85.91,88.25c.21.25.44.47.7.67-1.57,2.65-.24,5.89-.1,9.4.36,2.2-.31,1.96-1.6.86-.22-2.14-3.1-11.01,1.01-10.93Z"/>
  <path class="cls-72" d="M69.29,91.1c-3.04,2.8-9.53,17.69-13.26,16.23-1.1-1.97-3.45-2.93-4.14-5.18.41-2.27,2.06-10.68,3.52-11.33,2.17-.96,11.14-.11,13.88.29Z"/>
  <path class="cls-28" d="M69.29,90.08v1.02c-4.17.13-8.61-.36-13.16.42-.47,4.2-.68,8.87-4.25,10.63-5.1-2.74-8.91-7.43-13.25-11.26,2.2.42,4.62-.75,7.24-.75l23.41-.06Z"/>
  <path class="cls-38" d="M158.01,143.3c-2.66.2-17.5,16.88-13.3,19.17-2.09.62-2.6,2.94-2.73,4.93-4.81.28-9.69.5-14.52.23-.22-2.07,7.06.93,10.72-4.63,2.27-3.46,12.97-20.3,15-19.99,1.64.07,3.38-.67,4.83.3Z"/>
  <path class="cls-154" d="M152.07,168.77l23.51-.09c.18.52.25,2.15-1,2.15h-44.01c-.98,0-1.8-1.12-1.97-2l23.47-.05Z"/>
  <path class="cls-129" d="M240.09,123.9c5.13-.43-16.26,9.61-13.34,6.28,1.27-1.08,2.8-2.85,4.28-3.56,3.16-.58,5.75-2.72,9.06-2.72Z"/>
  <path class="cls-26" d="M248.13,44.09h-73.58c-13.45,0-26.87.44-40.93-.48l49.03-.65c.75-.01,1.22-.41,1.1-.91h7.15c4.2-1.1,9.25-.84,13.29,0,5.37-.51,10.94-.73,16.71-.66,1.48-2.09,2.87-1.83,3.73.66,3.26-.55,6.58-.76,9.97-.63,2.16-1.47,4.98-2,8.44-1.6.65-1.54,1.68-2.1,3.08-1.69,1.37,1.86,3.27,3.11,5.12,5.3-.87,1.03-2.12.61-3.1.67Z"/>
  <path class="cls-85" d="M275.65,111.3c.78,2.7-.87,3.76-4.97,3.16l-6.28,1.2-.95,1.87c-6.67,1.39-13.24,3.08-19.72,5.07l-.82-.84c-.33-1.47-1.85-1.8-3.22-3.26,7.62-6.09,16.92-10.68,26.74-10.14,3.56.19,7.45.54,9.21,2.94Z"/>
  <path class="cls-32" d="M264.39,115.66c6.69-1.9,13.09-3.5,16.24,4.12.04,2.3-.09,4.83.17,7.1-1.75-.85-2.98-.36-4.12,1.02.41-2.15.59-4.59-1.79-5.1-.57-8.14-13.58-2.67-20.62-1.02-1.59-4.12-11.01,4.48-12.3,1,.33-.32.64-.66.93-1.02,5.69-1.17,15.67-5.6,21.49-6.1Z"/>
  <path class="cls-8" d="M275.65,111.3c.51.69,1.81.7,2.35,1.24,1.77,2.26,2.59,4.52,2.63,7.24l-7.13-4.16c-2.53-1.47-6.37-.2-9.11.03,4.37-2.66,3.32.69,11.25-4.36Z"/>
  <path class="cls-119" d="M332.02,57.28c2.95,3.83,6.64,7,10.37,10.06-.02.35.17.73.11,1.08,1.8,2.47,3.79,4.85,5.96,7.14l-1.36.97c-10.45.36-20.92.76-31.4,1.22l-.91-1.26-.93-2.32c3.68-5.18,6.61-10.88,8.23-17.04l2.41-.86c2.38.38,5.49-1.64,7.54,1.01Z"/>
  <path class="cls-48" d="M324.48,56.27l-1.43,2.07-16.14.3c.66,5.36.59,9.6-3.69,13.39.92,2.11.83,3.68-.26,4.71-7.7-5.41-15.34-13.38-20.08-21.49,13.9.71,28-1.13,41.6,1.02Z"/>
  <path class="cls-115" d="M282.88,55.25c5.95,7.68,13.2,14.55,20.08,21.49-.31-3.17,8.92-2.99,9.56.06l.13,1.05-9.65.9c-8.23-6.75-15.37-15.21-22.17-23.47.68-.02,1.37-.06,2.05-.02Z"/>
  <path class="cls-23" d="M236.95,104.27l-6.15,5.32c-2.15,1.86-5.72,2.35-8.14,3.96-2.1,1.57-9.62-12.03-12.44-12.17l23.47,1.09c1.57.07,2.79.62,3.25,1.81Z"/>
  <path class="cls-53" d="M236.1,27.82l3.66,5.66-2.44,7.14c-4.15.71-8.38,1.18-12.69,1.43h-20.44c-.89-.29-.88-.63,0-1.02.74-.06,1.52-.24,2.26-.21,4.79.24,9.51.47,14.66-.11,3.17-8.4,1.44-18.06,6.92-21.22,3.14,2.18,6,5.11,8.05,8.33Z"/>
  <path class="cls-132" d="M246.11,38.13c-1.09.84-.06,2.44-1.12,3.6-7.15.54-13.78.32-20.36.32-.75-1.94,8.61-.45,10.76-1.55,1.42-9.98,4.19-3.31.71-12.67,3.92,2.78,7.17,6.45,10.02,10.3Z"/>
  <path class="cls-140" d="M315.34,40.39c-9.67,1.21-19.55.63-29.3.36,2.45-5.35,7.12-9.32,10.34-14.75.75-1.27,2.08-1.71,3.1-1.92l15.86,16.31Z"/>
  <path class="cls-130" d="M191.05,259.68c3.97-4.78,9.04-8.6,13.7-12.72-.03,1.88-7.43,12.86-13.7,12.72Z"/>
  <path class="cls-61" d="M341.13,90.08l-30.48.3c-1.51.98-.52,4.17-1.69,5.84-1.3-2.38.21-4.88-.35-8.01l36.7-.1c-.84,1-2.4,1.96-4.19,1.97Z"/>
  <path class="cls-46" d="M294.12,128.92c-.83,3.29.97,7.23-1.84,10.34l-.33-11.44c1.15.1.93-.84,1.64-2.01,1.02.91.38,2.09.52,3.11Z"/>
  <path class="cls-10" d="M350.41,75.49c-.1.58.26,2.15-1.06,2.22-7.5.44-14.58-.48-21.95.62-8.27,1.24-16.45.2-24.4.4l9.52-1.95c-.32-2.79,1.02-2.84,2.27-.3,4.97.39,10.06.74,15.39-.4s11.07.65,16.93-1c-1.95-3.12-5.07-3.91-4.61-6.67l7.91,7.07Z"/>
  <path class="cls-19" d="M135.72,143.34c2.01-.27,3.9-.7,5.66-1.3,4.42-.35,5.88.65,4.39,2.98l-11.3,16.49c-7.98,3.33-16.43,2.96-24.08.15-1.13-2.88,1.7-11.63,3.29-15.02.16-.34.79-.46,1.55-.52-.65-1.82.32-4.11,2.25-4.65,3.98-1.12,14.6-.07,18.23,1.88Z"/>
  <path class="cls-123" d="M133.67,140.16c.63.34,1.3.54,2.03.6,8.07.67,7.91,1.3.02,2.58-5.3-.23-10.51-.29-16.38-.65-1.53-.09-3.72,2.17-4.11,3.42-1.93.51-2.28-.84-1.03-4.05,2.4-3.24,6.02-3.06,9.5-2.21,3.45.83,6.85.18,9.97.31Z"/>
  <path class="cls-109" d="M115.23,146.11c-.81,2.61-.99,6.88-3,9.49-1.54,2-2.08,3.97-1.84,6.06-4.94,1.53,3.03-19.4,3.81-19.6-.06,1.43.08,2.92,1.03,4.05Z"/>
  <path class="cls-148" d="M145.77,145.02c-.05-.65-.83-1.28-1.93-1.32l-8.12-.35c.5-2.14,3.23-.24,5.09-1.69-2.49-1.44-5.67.85-7.14-1.49l15.32.67c-.89,2.24-2.39,2.96-3.23,4.19Z"/>
  <path class="cls-88" d="M196.29,40.77c2.63.05,5.26.45,7.9.25v1.02h-13.29c1.1-1.46,3.62-1.31,5.38-1.28Z"/>
  <path class="cls-67" d="M324.48,56.27c-3.4,11.03-3.85,11.13-9.7,20.23-.59-.05-1.7.18-2.27.3l-9.56-.06c-6.12-10.02,5.96-3.54,1.02-20.09l20.5-.38Z"/>
</svg>