<?xml version="1.0" encoding="UTF-8"?>
<svg id="Layer_1" data-name="Layer 1" xmlns="http://www.w3.org/2000/svg" xmlns:xlink="http://www.w3.org/1999/xlink" viewBox="0 0 200 200">
  <defs>
    <style>
      .cls-1 {
        fill: url(#linear-gradient-5);
      }

      .cls-2 {
        fill: url(#linear-gradient-4);
      }

      .cls-3 {
        fill: url(#linear-gradient-3);
      }

      .cls-4 {
        fill: url(#linear-gradient-2);
      }

      .cls-5 {
        fill: url(#linear-gradient);
      }

      .cls-6 {
        fill: #0f172a;
      }

      .cls-7 {
        fill: #e2e8f0;
      }
    </style>
    <linearGradient id="linear-gradient" x1="44.04" y1="115.76" x2="96.87" y2="24.26" gradientUnits="userSpaceOnUse">
      <stop offset="0" stop-color="#20c997"/>
      <stop offset="1" stop-color="#2563eb"/>
    </linearGradient>
    <linearGradient id="linear-gradient-2" x1="79.3" y1="162.73" x2="139.3" y2="58.81" xlink:href="#linear-gradient"/>
    <linearGradient id="linear-gradient-3" x1="137.67" y1="62.77" x2="144.61" y2="43.72" xlink:href="#linear-gradient"/>
    <linearGradient id="linear-gradient-4" x1="154.04" y1="42.35" x2="160.39" y2="24.9" xlink:href="#linear-gradient"/>
    <linearGradient id="linear-gradient-5" x1="161.11" y1="68.08" x2="165.14" y2="57.01" xlink:href="#linear-gradient"/>
  </defs>
  <ellipse class="cls-6" cx="100" cy="100" rx="102.3" ry="101.14"/>
  <g>
    <path class="cls-5" d="M48,34.38v83.67c1.5,0,6.8-.22,11.44-4.2,3.37-2.89,4.72-6.32,5.22-7.9v-52.08h50.98c.9-.07,6.87-.62,10.44-5.68.68-9.33-7.17-11.62-15.92-13.82h-62.17Z"/>
    <path class="cls-4" d="M64.91,129.86c1.58-.5,4.52-1.29,15.57-1.39,8.14-.07,33.55-1.01,42.93-8.13,3.01-2.28,15.33-11.64,15.67-24.33.1-3.9-.97-6.48-.28-13.31.54-5.32.96-8.96,3.75-11.74,4.07-4.05,10.39-3.5,12.11-3.29v36.56c-1.95,5.67-6.71,16.86-17.79,26.4-3.3,2.84-15.95,13.14-33.45,14.14-.84.05-.5.27-5.81.34-12.81.16-18.91.55-28.53.74-13.5.26-20.25.34-20.94-1.36-1.41-3.49,7.24-11.61,16.76-14.64Z"/>
    <rect class="cls-3" x="132.75" y="44.92" width="16.78" height="16.65" rx="1.97" ry="1.97"/>
    <rect class="cls-2" x="149.53" y="26" width="15.37" height="15.25" rx="1.8" ry="1.8"/>
    <rect class="cls-1" x="158.25" y="57.71" width="9.75" height="9.67" rx="1.14" ry="1.14"/>
  </g>
  <g>
    <path class="cls-7" d="M53.81,172.34h-7.3v-8.3h3.39v4.88h3.91c1.88,0,3.23-1.27,3.23-3.18s-1.4-3.24-3.23-3.24h-7.3l2.15-3.46h5.15c3.82,0,6.57,2.69,6.57,6.53s-2.79,6.79-6.57,6.79Z"/>
    <path class="cls-7" d="M65.53,172.34h-3.38v-13.31h3.38v13.31Z"/>
    <path class="cls-7" d="M74.37,164.03h6.98v8.32h-7.48c-3.78,0-6.57-2.92-6.57-6.79s2.79-6.53,6.57-6.53h7.81l-2.19,3.46h-5.63c-1.83,0-3.21,1.35-3.21,3.24s1.34,3.18,3.21,3.18h4.13v-1.93h-5.64l2.02-2.97Z"/>
    <path class="cls-7" d="M86.72,172.34h-3.38v-13.31h3.38v13.31Z"/>
    <path class="cls-7" d="M102.38,159.03l-2.19,3.46h-3.9v9.85h-3.37v-9.85h-5.12l2.18-3.46h12.39Z"/>
    <path class="cls-7" d="M117.58,166.53c0,4.02-2.27,6.03-6.8,6.03-5.25,0-7.52-2.01-7.52-6.03v-7.5h3.36v7.5c0,1.97.69,2.61,4.16,2.61,2.59,0,3.41-.74,3.41-2.61v-7.5h3.39v7.5Z"/>
    <path class="cls-7" d="M134.97,172.34h-4.52l-2.43-3.52h-5.18v3.52h-3.38v-6.81h9.49c1.04,0,1.86-.58,1.86-1.49,0-1.04-.7-1.55-1.86-1.55h-9.49l2.2-3.46h7.01c2.48,0,5.61.95,5.61,4.76,0,2.07-1.06,3.78-2.85,4.22.37.34.78.82,1.53,1.75l2.01,2.59Z"/>
    <path class="cls-7" d="M140.8,172.34l2.04-3.42h2.74c.65,0,1.42,0,1.94.04-.29-.48-.75-1.29-1.11-1.93l-1.96-3.52-5.12,8.84h-3.99l6.99-12.04c.46-.78,1.13-1.49,2.19-1.49s1.68.66,2.15,1.49l6.82,12.04h-12.69Z"/>
  </g>
</svg>