<?xml version="1.0" encoding="UTF-8"?>
<svg id="Layer_1" data-name="Layer 1" xmlns="http://www.w3.org/2000/svg" xmlns:xlink="http://www.w3.org/1999/xlink" viewBox="0 0 6876.39 2724.38">
  <defs>
    <style>
      .cls-1 {
        fill: url(#radial-gradient-6);
      }

      .cls-2 {
        fill: url(#radial-gradient-5);
      }

      .cls-3 {
        fill: url(#radial-gradient-4);
      }

      .cls-4 {
        fill: url(#radial-gradient-3);
      }

      .cls-5 {
        fill: url(#radial-gradient-2);
      }

      .cls-6 {
        fill: url(#linear-gradient-8);
      }

      .cls-7 {
        fill: url(#linear-gradient-7);
      }

      .cls-8 {
        fill: url(#linear-gradient-5);
      }

      .cls-9 {
        fill: url(#linear-gradient-6);
      }

      .cls-10 {
        fill: url(#linear-gradient-9);
      }

      .cls-11 {
        fill: url(#linear-gradient-4);
      }

      .cls-12 {
        fill: url(#linear-gradient-3);
      }

      .cls-13 {
        fill: url(#linear-gradient-2);
      }

      .cls-14 {
        fill: url(#radial-gradient);
      }

      .cls-15 {
        fill: url(#linear-gradient);
      }

      .cls-16 {
        fill: #0f172a;
      }

      .cls-17 {
        fill: #2563eb;
      }

      .cls-18 {
        fill: #e2e8f0;
      }

      .cls-19 {
        fill: #fff;
      }

      .cls-20 {
        fill: #20c997;
      }

      .cls-21 {
        fill: url(#linear-gradient-10);
      }

      .cls-22 {
        fill: url(#linear-gradient-11);
      }

      .cls-23 {
        fill: url(#linear-gradient-12);
      }

      .cls-24 {
        fill: url(#linear-gradient-13);
      }

      .cls-25 {
        fill: url(#linear-gradient-19);
      }

      .cls-26 {
        fill: url(#linear-gradient-14);
      }

      .cls-27 {
        fill: url(#linear-gradient-21);
      }

      .cls-28 {
        fill: url(#linear-gradient-20);
      }

      .cls-29 {
        fill: url(#linear-gradient-22);
      }

      .cls-30 {
        fill: url(#linear-gradient-23);
      }

      .cls-31 {
        fill: url(#linear-gradient-28);
      }

      .cls-32 {
        fill: url(#linear-gradient-25);
      }

      .cls-33 {
        fill: url(#linear-gradient-31);
      }

      .cls-34 {
        fill: url(#linear-gradient-30);
      }

      .cls-35 {
        fill: url(#linear-gradient-15);
      }

      .cls-36 {
        fill: url(#linear-gradient-16);
      }

      .cls-37 {
        fill: url(#linear-gradient-17);
      }

      .cls-38 {
        fill: url(#linear-gradient-18);
      }

      .cls-39 {
        fill: url(#linear-gradient-27);
      }

      .cls-40 {
        fill: url(#linear-gradient-24);
      }

      .cls-41 {
        fill: url(#linear-gradient-26);
      }

      .cls-42 {
        fill: url(#linear-gradient-29);
      }
    </style>
    <linearGradient id="linear-gradient" x1="3868.22" y1="378.91" x2="3901.49" y2="321.28" gradientUnits="userSpaceOnUse">
      <stop offset="0" stop-color="#20c997"/>
      <stop offset="1" stop-color="#2563eb"/>
    </linearGradient>
    <linearGradient id="linear-gradient-2" x1="3890.44" y1="408.55" x2="3928.2" y2="343.14" gradientUnits="userSpaceOnUse">
      <stop offset="0" stop-color="#20c997"/>
      <stop offset="1" stop-color="#2563eb"/>
    </linearGradient>
    <linearGradient id="linear-gradient-3" x1="3927.04" y1="345.52" x2="3931.41" y2="333.51" gradientUnits="userSpaceOnUse">
      <stop offset="0" stop-color="#20c997"/>
      <stop offset="1" stop-color="#2563eb"/>
    </linearGradient>
    <linearGradient id="linear-gradient-4" x1="3937.3" y1="332.62" x2="3941.3" y2="321.62" gradientUnits="userSpaceOnUse">
      <stop offset="0" stop-color="#20c997"/>
      <stop offset="1" stop-color="#2563eb"/>
    </linearGradient>
    <linearGradient id="linear-gradient-5" x1="3941.74" y1="348.87" x2="3944.28" y2="341.9" gradientUnits="userSpaceOnUse">
      <stop offset="0" stop-color="#20c997"/>
      <stop offset="1" stop-color="#2563eb"/>
    </linearGradient>
    <linearGradient id="linear-gradient-6" x1="4073.46" y1="364.39" x2="4122.42" y2="364.39" xlink:href="#linear-gradient-2"/>
    <linearGradient id="linear-gradient-7" x1="4073.46" y1="383.68" x2="4140.31" y2="383.68" xlink:href="#linear-gradient-2"/>
    <linearGradient id="linear-gradient-8" x1="4022.73" y1="489.27" x2="4071.69" y2="489.27" xlink:href="#linear-gradient-2"/>
    <linearGradient id="linear-gradient-9" x1="4022.73" y1="508.57" x2="4089.58" y2="508.57" xlink:href="#linear-gradient-2"/>
    <radialGradient id="radial-gradient" cx="4081.1" cy="474.77" fx="4081.1" fy="474.77" r="5.26" gradientUnits="userSpaceOnUse">
      <stop offset="0" stop-color="#20c997"/>
      <stop offset="1" stop-color="#2563eb"/>
    </radialGradient>
    <radialGradient id="radial-gradient-2" cx="4091.18" cy="462.38" fx="4091.18" fy="462.38" r="4.82" xlink:href="#radial-gradient"/>
    <radialGradient id="radial-gradient-3" cx="4094.88" cy="480.64" fx="4094.88" fy="480.64" r="3.05" xlink:href="#radial-gradient"/>
    <linearGradient id="linear-gradient-10" x1="3870.11" y1="563.26" x2="3903.38" y2="505.63" xlink:href="#linear-gradient-2"/>
    <linearGradient id="linear-gradient-11" x1="3892.33" y1="592.9" x2="3930.09" y2="527.49" xlink:href="#linear-gradient-2"/>
    <radialGradient id="radial-gradient-4" cx="3931.12" cy="523.86" fx="3931.12" fy="523.86" xlink:href="#radial-gradient"/>
    <radialGradient id="radial-gradient-5" cx="3941.19" cy="511.47" fx="3941.19" fy="511.47" r="4.82" xlink:href="#radial-gradient"/>
    <radialGradient id="radial-gradient-6" cx="3944.9" cy="529.74" fx="3944.9" fy="529.74" r="3.05" xlink:href="#radial-gradient"/>
    <linearGradient id="linear-gradient-12" x1="4077.08" y1="480.08" x2="4110.35" y2="422.45" xlink:href="#linear-gradient-2"/>
    <linearGradient id="linear-gradient-13" x1="4099.3" y1="509.72" x2="4137.06" y2="444.32" xlink:href="#linear-gradient-2"/>
    <linearGradient id="linear-gradient-14" x1="4135.9" y1="446.69" x2="4140.27" y2="434.68" xlink:href="#linear-gradient-2"/>
    <linearGradient id="linear-gradient-15" x1="4146.16" y1="433.8" x2="4150.16" y2="422.8" xlink:href="#linear-gradient-2"/>
    <linearGradient id="linear-gradient-16" x1="4150.6" y1="450.05" x2="4153.14" y2="443.07" xlink:href="#linear-gradient-2"/>
    <linearGradient id="linear-gradient-17" x1="4412.13" y1="389.11" x2="4453.82" y2="316.9" xlink:href="#linear-gradient-2"/>
    <linearGradient id="linear-gradient-18" x1="4439.96" y1="426.18" x2="4487.3" y2="344.18" xlink:href="#linear-gradient-2"/>
    <linearGradient id="linear-gradient-19" x1="4486" y1="347.29" x2="4491.47" y2="332.25" xlink:href="#linear-gradient-2"/>
    <linearGradient id="linear-gradient-20" x1="4498.91" y1="331.17" x2="4503.92" y2="317.4" xlink:href="#linear-gradient-2"/>
    <linearGradient id="linear-gradient-21" x1="4504.49" y1="351.48" x2="4507.67" y2="342.74" xlink:href="#linear-gradient-2"/>
    <linearGradient id="linear-gradient-22" x1="5323.56" y1="333.82" x2="5477.64" y2="66.94" xlink:href="#linear-gradient-2"/>
    <linearGradient id="linear-gradient-23" x1="5426.4" y1="470.82" x2="5601.39" y2="167.72" xlink:href="#linear-gradient-2"/>
    <linearGradient id="linear-gradient-24" x1="5596.64" y1="179.27" x2="5616.87" y2="123.69" xlink:href="#linear-gradient-2"/>
    <linearGradient id="linear-gradient-25" x1="5644.37" y1="119.71" x2="5662.89" y2="68.81" xlink:href="#linear-gradient-2"/>
    <linearGradient id="linear-gradient-26" x1="5665.01" y1="194.76" x2="5676.76" y2="162.47" xlink:href="#linear-gradient-2"/>
    <linearGradient id="linear-gradient-27" x1="6192.98" y1="116.9" x2="6245.81" y2="25.4" xlink:href="#linear-gradient-2"/>
    <linearGradient id="linear-gradient-28" x1="6228.24" y1="163.87" x2="6288.23" y2="59.95" xlink:href="#linear-gradient-2"/>
    <linearGradient id="linear-gradient-29" x1="6286.6" y1="63.91" x2="6293.54" y2="44.86" xlink:href="#linear-gradient-2"/>
    <linearGradient id="linear-gradient-30" x1="6302.97" y1="43.49" x2="6309.32" y2="26.04" xlink:href="#linear-gradient-2"/>
    <linearGradient id="linear-gradient-31" x1="6310.05" y1="69.22" x2="6314.07" y2="58.15" xlink:href="#linear-gradient-2"/>
  </defs>
  <path class="cls-19" d="M6535.02,736.77h249.81l91.56,91.56-217.01,217.01-217.09-217.09s85.16-91.47,92.73-91.47Z"/>
  <ellipse class="cls-16" cx="6248.93" cy="101.14" rx="102.3" ry="101.14"/>
  <circle class="cls-16" cx="3904.28" cy="362.84" r="80"/>
  <g>
    <path class="cls-18" d="M3867.58,419.91h-5.8v-6.64h2.69v3.9h3.11c1.49,0,2.57-1.02,2.57-2.55s-1.11-2.6-2.57-2.6h-5.8l1.71-2.77h4.09c3.03,0,5.22,2.15,5.22,5.22s-2.22,5.43-5.22,5.43Z"/>
    <path class="cls-18" d="M3876.89,419.91h-2.68v-10.65h2.68v10.65Z"/>
    <path class="cls-18" d="M3883.92,413.25h5.54v6.65h-5.95c-3.01,0-5.22-2.34-5.22-5.43s2.22-5.22,5.22-5.22h6.21l-1.74,2.77h-4.47c-1.45,0-2.55,1.08-2.55,2.6s1.06,2.55,2.55,2.55h3.28v-1.55h-4.48l1.61-2.37Z"/>
    <path class="cls-18" d="M3893.73,419.91h-2.68v-10.65h2.68v10.65Z"/>
    <path class="cls-18" d="M3906.17,409.26l-1.74,2.77h-3.1v7.88h-2.68v-7.88h-4.07l1.74-2.77h9.85Z"/>
    <path class="cls-18" d="M3918.25,415.26c0,3.22-1.8,4.82-5.4,4.82-4.17,0-5.97-1.61-5.97-4.82v-6h2.67v6c0,1.58.54,2.09,3.3,2.09,2.06,0,2.71-.59,2.71-2.09v-6h2.69v6Z"/>
    <path class="cls-18" d="M3932.07,419.91h-3.59l-1.93-2.82h-4.12v2.82h-2.68v-5.44h7.54c.83,0,1.48-.46,1.48-1.19,0-.83-.56-1.24-1.48-1.24h-7.54l1.75-2.77h5.57c1.97,0,4.46.76,4.46,3.8,0,1.66-.84,3.03-2.27,3.38.3.27.62.65,1.22,1.4l1.59,2.07Z"/>
    <path class="cls-18" d="M3936.7,419.91l1.62-2.74h2.18c.52,0,1.13,0,1.54.03-.23-.38-.6-1.03-.88-1.54l-1.55-2.82-4.07,7.07h-3.17l5.56-9.63c.36-.62.89-1.19,1.74-1.19s1.33.52,1.71,1.19l5.42,9.63h-10.08Z"/>
  </g>
  <g>
    <path class="cls-15" d="M3870.85,327.6v52.84c.94,0,4.26-.14,7.17-2.65,2.12-1.82,2.96-3.99,3.27-4.99v-32.89h31.95c.57-.04,4.31-.39,6.55-3.58.43-5.89-4.49-7.34-9.97-8.73h-38.96Z"/>
    <path class="cls-13" d="M3881.45,387.9c.99-.32,2.83-.81,9.76-.88,5.1-.05,21.03-.64,26.91-5.13,1.88-1.44,9.61-7.35,9.82-15.36.07-2.46-.61-4.09-.17-8.4.34-3.36.6-5.66,2.35-7.41,2.55-2.56,6.51-2.21,7.59-2.08v23.09c-1.22,3.58-4.21,10.64-11.15,16.67-2.07,1.79-10,8.3-20.96,8.93-.53.03-.31.17-3.64.21-8.03.1-11.85.35-17.88.47-8.46.16-12.69.22-13.12-.86-.88-2.21,4.54-7.33,10.5-9.24Z"/>
    <rect class="cls-12" x="3923.97" y="334.25" width="10.52" height="10.52" rx="1.24" ry="1.24"/>
    <rect class="cls-11" x="3934.49" y="322.31" width="9.63" height="9.63" rx="1.13" ry="1.13"/>
    <rect class="cls-8" x="3939.95" y="342.33" width="6.11" height="6.11" rx=".72" ry=".72"/>
  </g>
  <g>
    <path class="cls-9" d="M4073.46,337.97v52.84c.94,0,4.26-.14,7.17-2.65,2.12-1.82,2.96-3.99,3.27-4.99v-32.89h31.95c.57-.04,4.31-.39,6.55-3.58.43-5.89-4.49-7.34-9.97-8.73h-38.96Z"/>
    <path class="cls-7" d="M4084.05,398.27c.99-.32,2.83-.81,9.76-.88,5.1-.05,21.03-.64,26.91-5.13,1.88-1.44,9.61-7.35,9.82-15.36.07-2.46-.61-4.09-.17-8.4.34-3.36.6-5.66,2.35-7.41,2.55-2.56,6.51-2.21,7.59-2.08v23.09c-1.22,3.58-4.21,10.64-11.15,16.67-2.07,1.79-10,8.3-20.96,8.93-.53.03-.31.17-3.64.21-8.03.1-11.85.35-17.88.47-8.46.16-12.69.22-13.12-.86-.88-2.21,4.54-7.33,10.5-9.24Z"/>
  </g>
  <g>
    <g>
      <path class="cls-6" d="M4022.73,462.85v52.84c.94,0,4.26-.14,7.17-2.65,2.12-1.82,2.96-3.99,3.27-4.99v-32.89h31.95c.57-.04,4.31-.39,6.55-3.58.43-5.89-4.49-7.34-9.97-8.73h-38.96Z"/>
      <path class="cls-10" d="M4033.33,523.15c.99-.32,2.83-.81,9.76-.88,5.1-.05,21.03-.64,26.91-5.13,1.88-1.44,9.61-7.35,9.82-15.36.07-2.46-.61-4.09-.17-8.4.34-3.36.6-5.66,2.35-7.41,2.55-2.56,6.51-2.21,7.59-2.08v23.09c-1.22,3.58-4.21,10.64-11.15,16.67-2.07,1.79-10,8.3-20.96,8.93-.53.03-.31.17-3.64.21-8.03.1-11.85.35-17.88.47-8.46.16-12.69.22-13.12-.86-.88-2.21,4.54-7.33,10.5-9.24Z"/>
    </g>
    <g>
      <rect class="cls-14" x="4075.85" y="469.51" width="10.52" height="10.52" rx="1.24" ry="1.24"/>
      <rect class="cls-5" x="4086.36" y="457.56" width="9.63" height="9.63" rx="1.13" ry="1.13"/>
      <rect class="cls-4" x="4091.83" y="477.59" width="6.11" height="6.11" rx=".72" ry=".72"/>
    </g>
  </g>
  <circle class="cls-16" cx="3906.17" cy="547.19" r="80"/>
  <g>
    <path class="cls-19" d="M3869.48,604.26h-5.8v-6.64h2.69v3.9h3.11c1.49,0,2.57-1.02,2.57-2.55s-1.11-2.6-2.57-2.6h-5.8l1.71-2.77h4.09c3.03,0,5.22,2.15,5.22,5.22s-2.22,5.43-5.22,5.43Z"/>
    <path class="cls-19" d="M3878.78,604.26h-2.68v-10.65h2.68v10.65Z"/>
    <path class="cls-19" d="M3885.81,597.6h5.54v6.65h-5.95c-3.01,0-5.22-2.34-5.22-5.43s2.22-5.22,5.22-5.22h6.21l-1.74,2.77h-4.47c-1.45,0-2.55,1.08-2.55,2.6s1.06,2.55,2.55,2.55h3.28v-1.55h-4.48l1.61-2.37Z"/>
    <path class="cls-19" d="M3895.62,604.26h-2.68v-10.65h2.68v10.65Z"/>
    <path class="cls-19" d="M3908.06,593.61l-1.74,2.77h-3.1v7.88h-2.68v-7.88h-4.07l1.74-2.77h9.85Z"/>
    <path class="cls-19" d="M3920.14,599.61c0,3.22-1.8,4.82-5.4,4.82-4.17,0-5.97-1.61-5.97-4.82v-6h2.67v6c0,1.58.54,2.09,3.3,2.09,2.06,0,2.71-.59,2.71-2.09v-6h2.69v6Z"/>
    <path class="cls-19" d="M3933.96,604.26h-3.59l-1.93-2.82h-4.12v2.82h-2.68v-5.44h7.54c.83,0,1.48-.46,1.48-1.19,0-.83-.56-1.24-1.48-1.24h-7.54l1.75-2.77h5.57c1.97,0,4.46.76,4.46,3.8,0,1.66-.84,3.03-2.27,3.38.3.27.62.65,1.22,1.4l1.59,2.07Z"/>
    <path class="cls-19" d="M3938.59,604.26l1.62-2.74h2.18c.52,0,1.13,0,1.54.03-.23-.38-.6-1.03-.88-1.54l-1.55-2.82-4.07,7.07h-3.17l5.56-9.63c.36-.62.89-1.19,1.74-1.19s1.33.52,1.71,1.19l5.42,9.63h-10.08Z"/>
  </g>
  <g>
    <path class="cls-21" d="M3872.74,511.95v52.84c.94,0,4.26-.14,7.17-2.65,2.12-1.82,2.96-3.99,3.27-4.99v-32.89h31.95c.57-.04,4.31-.39,6.55-3.58.43-5.89-4.49-7.34-9.97-8.73h-38.96Z"/>
    <path class="cls-22" d="M3883.34,572.25c.99-.32,2.83-.81,9.76-.88,5.1-.05,21.03-.64,26.91-5.13,1.88-1.44,9.61-7.35,9.82-15.36.07-2.46-.61-4.09-.17-8.4.34-3.36.6-5.66,2.35-7.41,2.55-2.56,6.51-2.21,7.59-2.08v23.09c-1.22,3.58-4.21,10.64-11.15,16.67-2.07,1.79-10,8.3-20.96,8.93-.53.03-.31.17-3.64.21-8.03.1-11.85.35-17.88.47-8.46.16-12.69.22-13.12-.86-.88-2.21,4.54-7.33,10.5-9.24Z"/>
  </g>
  <g>
    <rect class="cls-3" x="3925.86" y="518.61" width="10.52" height="10.52" rx="1.24" ry="1.24"/>
    <rect class="cls-2" x="3936.38" y="506.66" width="9.63" height="9.63" rx="1.13" ry="1.13"/>
    <rect class="cls-1" x="3941.84" y="526.68" width="6.11" height="6.11" rx=".72" ry=".72"/>
  </g>
  <path class="cls-17" d="M3859.62,87.73v52.84c.94,0,4.26-.14,7.17-2.65,2.12-1.82,2.96-3.99,3.27-4.99v-32.89h31.95c.57-.04,4.31-.39,6.55-3.58.43-5.89-4.49-7.34-9.97-8.73h-38.96Z"/>
  <path class="cls-17" d="M3870.22,148.03c.99-.32,2.83-.81,9.76-.88,5.1-.05,21.03-.64,26.91-5.13,1.88-1.44,9.61-7.35,9.82-15.36.07-2.46-.61-4.09-.17-8.4.34-3.36.6-5.66,2.35-7.41,2.55-2.56,6.51-2.21,7.59-2.08v23.09c-1.22,3.58-4.21,10.64-11.15,16.67-2.07,1.79-10,8.3-20.96,8.93-.53.03-.31.17-3.64.21-8.03.1-11.85.35-17.88.47-8.46.16-12.69.22-13.12-.86-.88-2.21,4.54-7.33,10.5-9.24Z"/>
  <rect class="cls-20" x="3912.74" y="94.39" width="10.52" height="10.52" rx="1.24" ry="1.24"/>
  <rect class="cls-20" x="3923.25" y="82.44" width="9.63" height="9.63" rx="1.13" ry="1.13"/>
  <rect class="cls-20" x="3928.72" y="102.47" width="6.11" height="6.11" rx=".72" ry=".72"/>
  <circle class="cls-16" cx="4113.14" cy="464.02" r="80"/>
  <g>
    <path class="cls-18" d="M4076.45,521.08h-5.8v-6.64h2.69v3.9h3.11c1.49,0,2.57-1.02,2.57-2.55s-1.11-2.6-2.57-2.6h-5.8l1.71-2.77h4.09c3.03,0,5.22,2.15,5.22,5.22s-2.22,5.43-5.22,5.43Z"/>
    <path class="cls-18" d="M4085.75,521.08h-2.68v-10.65h2.68v10.65Z"/>
    <path class="cls-18" d="M4092.78,514.43h5.54v6.65h-5.95c-3.01,0-5.22-2.34-5.22-5.43s2.22-5.22,5.22-5.22h6.21l-1.74,2.77h-4.47c-1.45,0-2.55,1.08-2.55,2.6s1.06,2.55,2.55,2.55h3.28v-1.55h-4.48l1.61-2.37Z"/>
    <path class="cls-18" d="M4102.59,521.08h-2.68v-10.65h2.68v10.65Z"/>
    <path class="cls-18" d="M4115.03,510.43l-1.74,2.77h-3.1v7.88h-2.68v-7.88h-4.07l1.74-2.77h9.85Z"/>
    <path class="cls-18" d="M4127.11,516.43c0,3.22-1.8,4.82-5.4,4.82-4.17,0-5.97-1.61-5.97-4.82v-6h2.67v6c0,1.58.54,2.09,3.3,2.09,2.06,0,2.71-.59,2.71-2.09v-6h2.69v6Z"/>
    <path class="cls-18" d="M4140.93,521.08h-3.59l-1.93-2.82h-4.12v2.82h-2.68v-5.44h7.54c.83,0,1.48-.46,1.48-1.19,0-.83-.56-1.24-1.48-1.24h-7.54l1.75-2.77h5.57c1.97,0,4.46.76,4.46,3.8,0,1.66-.84,3.03-2.27,3.38.3.27.62.65,1.22,1.4l1.59,2.07Z"/>
    <path class="cls-18" d="M4145.56,521.08l1.62-2.74h2.18c.52,0,1.13,0,1.54.03-.23-.38-.6-1.03-.88-1.54l-1.55-2.82-4.07,7.07h-3.17l5.56-9.63c.36-.62.89-1.19,1.74-1.19s1.33.52,1.71,1.19l5.42,9.63h-10.08Z"/>
  </g>
  <g>
    <path class="cls-23" d="M4079.71,428.77v52.84c.94,0,4.26-.14,7.17-2.65,2.12-1.82,2.96-3.99,3.27-4.99v-32.89h31.95c.57-.04,4.31-.39,6.55-3.58.43-5.89-4.49-7.34-9.97-8.73h-38.96Z"/>
    <path class="cls-24" d="M4090.31,489.07c.99-.32,2.83-.81,9.76-.88,5.1-.05,21.03-.64,26.91-5.13,1.88-1.44,9.61-7.35,9.82-15.36.07-2.46-.61-4.09-.17-8.4.34-3.36.6-5.66,2.35-7.41,2.55-2.56,6.51-2.21,7.59-2.08v23.09c-1.22,3.58-4.21,10.64-11.15,16.67-2.07,1.79-10,8.3-20.96,8.93-.53.03-.31.17-3.64.21-8.03.1-11.85.35-17.88.47-8.46.16-12.69.22-13.12-.86-.88-2.21,4.54-7.33,10.5-9.24Z"/>
    <rect class="cls-26" x="4132.83" y="435.43" width="10.52" height="10.52" rx="1.24" ry="1.24"/>
    <rect class="cls-35" x="4143.35" y="423.48" width="9.63" height="9.63" rx="1.13" ry="1.13"/>
    <rect class="cls-36" x="4148.81" y="443.51" width="6.11" height="6.11" rx=".72" ry=".72"/>
  </g>
  <ellipse class="cls-16" cx="4457.79" cy="370.07" rx="102.3" ry="101.14"/>
  <g>
    <path class="cls-18" d="M4411.15,440.26h-7.3v-8.3h3.39v4.88h3.91c1.88,0,3.23-1.27,3.23-3.18s-1.4-3.24-3.23-3.24h-7.3l2.15-3.46h5.15c3.82,0,6.57,2.69,6.57,6.53s-2.79,6.79-6.57,6.79Z"/>
    <path class="cls-18" d="M4422.87,440.26h-3.38v-13.31h3.38v13.31Z"/>
    <path class="cls-18" d="M4431.71,431.95h6.98v8.32h-7.48c-3.78,0-6.57-2.92-6.57-6.79s2.79-6.53,6.57-6.53h7.81l-2.19,3.46h-5.63c-1.83,0-3.21,1.35-3.21,3.24s1.34,3.18,3.21,3.18h4.13v-1.93h-5.64l2.02-2.97Z"/>
    <path class="cls-18" d="M4444.06,440.26h-3.38v-13.31h3.38v13.31Z"/>
    <path class="cls-18" d="M4459.72,426.95l-2.19,3.46h-3.9v9.85h-3.37v-9.85h-5.12l2.18-3.46h12.39Z"/>
    <path class="cls-18" d="M4474.92,434.45c0,4.02-2.27,6.03-6.8,6.03-5.25,0-7.52-2.01-7.52-6.03v-7.5h3.36v7.5c0,1.97.69,2.61,4.16,2.61,2.59,0,3.41-.74,3.41-2.61v-7.5h3.39v7.5Z"/>
    <path class="cls-18" d="M4492.31,440.26h-4.52l-2.43-3.52h-5.18v3.52h-3.38v-6.81h9.49c1.04,0,1.86-.58,1.86-1.49,0-1.04-.7-1.55-1.86-1.55h-9.49l2.2-3.46h7.01c2.48,0,5.61.95,5.61,4.76,0,2.07-1.06,3.78-2.85,4.22.37.34.78.82,1.53,1.75l2.01,2.59Z"/>
    <path class="cls-18" d="M4498.14,440.26l2.04-3.42h2.74c.65,0,1.42,0,1.94.04-.29-.48-.75-1.29-1.11-1.93l-1.96-3.52-5.12,8.84h-3.99l6.99-12.04c.46-.78,1.13-1.49,2.19-1.49s1.68.66,2.15,1.49l6.82,12.04h-12.69Z"/>
  </g>
  <g>
    <path class="cls-37" d="M4415.27,324.88v66.04c1.19,0,5.36-.18,9.02-3.31,2.66-2.28,3.72-4.99,4.12-6.23v-41.11h40.21c.71-.05,5.42-.49,8.24-4.48.54-7.36-5.65-9.17-12.55-10.91h-49.04Z"/>
    <path class="cls-38" d="M4428.6,400.25c1.25-.4,3.56-1.02,12.28-1.1,6.42-.06,26.47-.8,33.86-6.42,2.37-1.8,12.09-9.19,12.36-19.2.08-3.08-.76-5.12-.22-10.5.42-4.2.76-7.07,2.96-9.26,3.21-3.2,8.19-2.76,9.55-2.6v28.86c-1.54,4.47-5.3,13.31-14.03,20.84-2.6,2.24-12.58,10.37-26.38,11.16-.66.04-.39.21-4.59.27-10.11.13-14.92.44-22.5.58-10.65.2-15.97.27-16.52-1.07-1.11-2.76,5.71-9.16,13.22-11.55Z"/>
    <rect class="cls-25" x="4482.12" y="333.2" width="13.24" height="13.15" rx="1.55" ry="1.55"/>
    <rect class="cls-28" x="4495.35" y="318.26" width="12.12" height="12.04" rx="1.42" ry="1.42"/>
    <rect class="cls-27" x="4502.24" y="343.3" width="7.69" height="7.64" rx=".9" ry=".9"/>
  </g>
  <g>
    <path class="cls-29" d="M5335.1,96.45v244.03c4.39-.03,19.82-.65,33.36-12.24,9.84-8.42,13.76-18.43,15.23-23.04v-151.89h148.69c2.63-.2,20.04-1.8,30.46-16.56,2-27.21-20.9-33.89-46.42-40.31h-181.32Z"/>
    <path class="cls-30" d="M5384.41,374.96c4.62-1.47,13.18-3.76,45.42-4.05,23.74-.21,97.86-2.94,125.22-23.71,8.77-6.66,44.71-33.95,45.7-70.95.3-11.37-2.82-18.9-.8-38.81,1.57-15.51,2.79-26.12,10.95-34.23,11.88-11.81,30.3-10.2,35.33-9.6v106.63c-5.7,16.53-19.58,49.17-51.89,77-9.62,8.29-46.52,38.32-97.56,41.23-2.44.14-1.45.79-16.96.99-37.37.48-55.16,1.62-83.21,2.15-39.39.75-59.06,1-61.06-3.95-4.11-10.19,21.13-33.86,48.87-42.69Z"/>
    <rect class="cls-40" x="5582.28" y="127.2" width="48.94" height="48.57" rx="5.74" ry="5.74"/>
    <rect class="cls-32" x="5631.22" y="72.02" width="44.82" height="44.48" rx="5.26" ry="5.26"/>
    <rect class="cls-41" x="5656.67" y="164.51" width="28.43" height="28.22" rx="3.34" ry="3.34"/>
  </g>
  <g>
    <path class="cls-39" d="M6196.93,35.52v83.67c1.5,0,6.8-.22,11.44-4.2,3.37-2.89,4.72-6.32,5.22-7.9v-52.08h50.98c.9-.07,6.87-.62,10.44-5.68.68-9.33-7.17-11.62-15.92-13.82h-62.17Z"/>
    <path class="cls-31" d="M6213.84,131.01c1.58-.5,4.52-1.29,15.57-1.39,8.14-.07,33.55-1.01,42.93-8.13,3.01-2.28,15.33-11.64,15.67-24.33.1-3.9-.97-6.48-.28-13.31.54-5.32.96-8.96,3.75-11.74,4.07-4.05,10.39-3.5,12.11-3.29v36.56c-1.95,5.67-6.71,16.86-17.79,26.4-3.3,2.84-15.95,13.14-33.45,14.14-.84.05-.5.27-5.81.34-12.81.16-18.91.55-28.53.74-13.5.26-20.25.34-20.94-1.36-1.41-3.49,7.24-11.61,16.76-14.64Z"/>
    <rect class="cls-42" x="6281.68" y="46.06" width="16.78" height="16.65" rx="1.97" ry="1.97"/>
    <rect class="cls-34" x="6298.46" y="27.14" width="15.37" height="15.25" rx="1.8" ry="1.8"/>
    <rect class="cls-33" x="6307.19" y="58.85" width="9.75" height="9.67" rx="1.14" ry="1.14"/>
  </g>
  <g>
    <path class="cls-18" d="M6202.75,173.49h-7.3v-8.3h3.39v4.88h3.91c1.88,0,3.23-1.27,3.23-3.18s-1.4-3.24-3.23-3.24h-7.3l2.15-3.46h5.15c3.82,0,6.57,2.69,6.57,6.53s-2.79,6.79-6.57,6.79Z"/>
    <path class="cls-18" d="M6214.46,173.49h-3.38v-13.31h3.38v13.31Z"/>
    <path class="cls-18" d="M6223.3,165.17h6.98v8.32h-7.48c-3.78,0-6.57-2.92-6.57-6.79s2.79-6.53,6.57-6.53h7.81l-2.19,3.46h-5.63c-1.83,0-3.21,1.35-3.21,3.24s1.34,3.18,3.21,3.18h4.13v-1.93h-5.64l2.02-2.97Z"/>
    <path class="cls-18" d="M6235.66,173.49h-3.38v-13.31h3.38v13.31Z"/>
    <path class="cls-18" d="M6251.31,160.17l-2.19,3.46h-3.9v9.85h-3.37v-9.85h-5.12l2.18-3.46h12.39Z"/>
    <path class="cls-18" d="M6266.52,167.68c0,4.02-2.27,6.03-6.8,6.03-5.25,0-7.52-2.01-7.52-6.03v-7.5h3.36v7.5c0,1.97.69,2.61,4.16,2.61,2.59,0,3.41-.74,3.41-2.61v-7.5h3.39v7.5Z"/>
    <path class="cls-18" d="M6283.91,173.49h-4.52l-2.43-3.52h-5.18v3.52h-3.38v-6.81h9.49c1.04,0,1.86-.58,1.86-1.49,0-1.04-.7-1.55-1.86-1.55h-9.49l2.2-3.46h7.01c2.48,0,5.61.95,5.61,4.76,0,2.07-1.06,3.78-2.85,4.22.37.34.78.82,1.53,1.75l2.01,2.59Z"/>
    <path class="cls-18" d="M6289.74,173.49l2.04-3.42h2.74c.65,0,1.42,0,1.94.04-.29-.48-.75-1.29-1.11-1.93l-1.96-3.52-5.12,8.84h-3.99l6.99-12.04c.46-.78,1.13-1.49,2.19-1.49s1.68.66,2.15,1.49l6.82,12.04h-12.69Z"/>
  </g>
  <path class="cls-19" d="M0,2723.38V724.38h3000v2000H0v-1ZM1959.16,2235.45l.32,27.43c.39,33.74,26.3,67.15,62.44,67.13l192.1-.1c49.67-.03,91.69-42.94,92.59-91.11l.97-52c11.55-14.2,17.42-27.88,17.07-46.78l-7.26-393.36c-.46-25-10.49-47.74-20.24-69.53-28.59-63.9-90.12-135.49-141.78-185.74,31.73-23.38,84.76-5.21,102.13-37.05,11.21-20.54,3.3-46.53-13.97-61.41-26.55-22.88-70.88-30.62-105.61-32.72-11.39-.69-21.27,9.97-18.95,21.44l13.29,65.61c.44,2.17-.69,6.26-1.91,6.31l-4.72.19-107.8-177.29c-18.92-31.12-40.04-58.8-64.52-85.17-21.7-23.39-47.81-37.52-79.16-43.44-52.82-9.98-104.16-16.85-158.37-20.95-137.68-10.4-274.36-10.56-412.01-1.28-58.79,3.96-115.02,11.11-172.47,21.66-33.14,6.08-60.41,20.62-83.09,45.55-23.28,25.6-43.77,52.09-62.01,82.09l-107.05,176.09c-.94,1.55-5.89,3.75-7.03,2.36-.91-1.12-1.74-4.52-1.4-6.2l13.26-64.86c2.26-11.05-6.53-22.56-17.94-22.01-35.06,1.69-85.08,10.34-110.22,36.18-14.79,15.2-20.82,39.67-10.03,58.35,17.78,30.78,68.07,13.51,102.26,36.27-52.03,50.29-116.8,125.53-144.93,192.12-8.72,20.65-17.31,41.97-17.72,65.28l-7.01,393.62c-.32,18.11,6.1,31.39,17.38,44.59l.34,46.24c.37,49.87,40.17,96.72,91.92,96.82l191.96.38c34.07.07,61.16-29.35,63.09-61.93.7-11.81.29-22.15,1.86-32.79l914.22.02Z"/>
  <path d="M6718.36,930.25h-117.9c-.2,1.37-.15,2.7-.24,4.23-.25,4.2-3.74,8-8.14,7.99l-24.75-.05c-6.67-.01-11.81-6.05-11.85-12.49l-.04-5.96c-1.46-1.7-2.28-3.41-2.24-5.75l.9-50.76c.05-3.01,1.16-5.76,2.29-8.42,3.63-8.59,11.98-18.29,18.69-24.78-4.41-2.94-10.89-.71-13.19-4.68-1.39-2.41-.61-5.56,1.29-7.52,3.24-3.33,9.69-4.45,14.21-4.67,1.47-.07,2.61,1.41,2.31,2.84l-1.71,8.36c-.04.22.06.66.18.8.15.18.78-.1.91-.3l13.81-22.71c2.35-3.87,4.99-7.28,8-10.59,2.92-3.22,6.44-5.09,10.72-5.87,7.41-1.36,14.66-2.28,22.24-2.79,17.75-1.2,35.38-1.18,53.13.17,6.99.53,13.61,1.41,20.42,2.7,4.04.76,7.41,2.59,10.21,5.6,3.16,3.4,5.88,6.97,8.32,10.98l13.9,22.86.61-.03c.16,0,.3-.53.25-.81l-1.71-8.46c-.3-1.48.97-2.85,2.44-2.77,4.48.27,10.2,1.27,13.62,4.22,2.23,1.92,3.25,5.27,1.8,7.92-2.24,4.11-9.08,1.76-13.17,4.78,6.66,6.48,14.6,15.71,18.28,23.95,1.26,2.81,2.55,5.74,2.61,8.97l.94,50.73c.05,2.44-.71,4.2-2.2,6.03l-.13,6.71c-.12,6.21-5.53,11.75-11.94,11.75h-24.77c-4.66.02-8-4.29-8.05-8.64l-.04-3.54ZM6729.21,827.38c.89.01,1.31-.96,1.07-1.63-3.28-8.92-8.86-17.46-14.3-25.23-2.14-3.06-5.26-5.31-9.15-5.59-19.16-1.35-46.28-2.47-65.25-1.53l-28.9,1.43c-4.1.2-7.52,2.16-9.86,5.51-5.51,7.89-11.03,16.26-14.41,25.34-.11.31-.06.9.07,1.14s.72.58,1.12.57l69.81-1.07,69.81,1.07ZM6598,871.82c.45-.75-.19-1.85-.93-2.12l-29.52-11.23c-.44-.17-1.46-.07-1.75.26-3.49,3.93-4.56,9-.71,13.04,4.81,5.06,15.62,9.87,22.35,12.24,2.91.83,9.12-9.81,10.56-12.19ZM6753.29,872.09c1.86-1.83,2.93-4.28,2.71-6.86-.2-2.36-2.56-7.64-4.77-6.8l-29.65,11.28c-1.11.42-1.22,1.7-.68,2.55,2.12,3.31,4.14,6.55,6.61,9.57,1.01,1.24,2.28,2.1,3.86,2.22,6.83-2.66,16.79-6.9,21.91-11.96ZM6701.92,894.62c4.08-.67,7.67-2.25,10.79-4.47,3.54-2.53,3.74-6.37,1.66-9.82-2.93-4.85-7.22-8.09-13.01-8.74-5.28-.59-10.47-1.17-15.85-1.2l-21.46-.13-22.7-.03c-8.02-.01-15.77.45-23.67,1.3-6,.65-10.44,3.84-13.43,8.91-1.95,3.31-1.86,7.03,1.51,9.54,3.18,2.37,6.91,3.97,10.99,4.64,23.22,3.82,61.74,3.85,85.17,0ZM6584.7,914.2l9.45-7.84c.61-.51.93-1.4.88-2.18-.03-.57-.56-1.52-1.23-1.87-5.24-2.69-10.9-3.85-16.76-3.57-3.59.17-6.64,2.26-7.86,5.67-.49,1.36-.88,2.77-1.16,4.2-.59,3.02,1.33,5.76,4.3,6.43,3.3.74,9.63,1.44,12.39-.85ZM6746.53,915c2.79-.7,4.58-3.26,4.16-6.03-.79-5.24-3-9.86-8.92-10.2-5.89-.34-11.59.87-16.87,3.54-.69.35-1.22,1.31-1.26,1.92-.05.69.28,1.62.82,2.08l9.15,7.61c1.43,1.19,3.06,1.77,4.97,1.79,2.66.03,5.23-.03,7.95-.71ZM6719.48,916.18c.62,0,1.25-.78.95-.96-2.14-1.28-4.14-2.52-6.39-3.62-5.01-2.45-10.38-3.06-16-3.06h-77.03c-5.65,0-11.05.52-16.11,2.92-2.32,1.1-4.37,2.38-6.64,3.74-.31.19.42.96.89.96h120.32Z"/>
  <path class="cls-19" d="M2043.34,1437.8l-541.34-8.3-541.3,8.28c-3.1.05-7.65-2.55-8.65-4.42-1-1.88-1.41-6.48-.52-8.86,26.22-70.39,69.05-135.3,111.74-196.49,18.12-25.98,44.68-41.14,76.44-42.71l224.12-11.06c147.1-7.26,357.36,1.39,505.95,11.88,30.2,2.13,54.37,19.62,70.96,43.34,42.2,60.31,85.47,126.51,110.87,195.68,1.9,5.19-1.39,12.76-8.26,12.66Z"/>
  <path class="cls-19" d="M1831.71,1959.21c-181.64,29.87-480.39,29.65-660.42.02-31.61-5.2-60.56-17.64-85.22-36-26.16-19.48-26.84-48.33-11.73-73.98,23.15-39.3,57.58-64.1,104.11-69.12,61.23-6.6,121.38-10.18,183.53-10.09l176.04.25,166.38,1.02c41.7.25,81.92,4.73,122.89,9.32,44.91,5.03,78.18,30.19,100.9,67.78,16.14,26.71,14.63,56.54-12.85,76.13-24.16,17.22-52.01,29.47-83.64,34.67Z"/>
  <path class="cls-19" d="M1967.86,2126.36h-933.04c-3.62,0-9.31-6-6.87-7.46,17.58-10.58,33.51-20.5,51.47-29.02,39.25-18.62,81.11-22.7,124.91-22.7l597.34.02c43.53,0,85.18,4.72,124.05,23.71,17.41,8.5,32.89,18.09,49.52,28.04,2.33,1.4-2.52,7.41-7.36,7.41Z"/>
  <path class="cls-19" d="M1025.85,1782.37c-11.13,18.43-59.27,100.98-81.85,94.54-52.22-18.39-136.05-55.73-173.34-94.95-29.84-31.39-21.56-70.72,5.49-101.16,2.27-2.55,10.18-3.31,13.61-2.01l228.91,87.1c5.7,2.17,10.69,10.67,7.18,16.48Z"/>
  <path class="cls-19" d="M2230.02,1784.48c-39.71,39.21-116.92,72.09-169.92,92.74-12.28-.95-22.1-7.66-29.94-17.24-19.15-23.41-34.88-48.52-51.29-74.18-4.24-6.63-3.32-16.52,5.26-19.79l229.92-87.51c17.13-6.52,35.4,34.41,36.96,52.74,1.71,20.05-6.61,39.03-20.99,53.23Z"/>
  <path class="cls-19" d="M2177.66,2117.18c-21.1,5.25-41.02,5.74-61.68,5.5-14.8-.17-27.43-4.66-38.52-13.89l-70.94-59.02c-4.25-3.54-6.75-10.74-6.39-16.11.32-4.79,4.46-12.23,9.8-14.93,40.94-20.66,85.11-30.04,130.82-27.43,45.94,2.62,63.01,38.49,69.18,79.11,3.26,21.49-10.61,41.37-32.27,46.76Z"/>
  <path class="cls-19" d="M922.71,2111.02c-21.39,17.75-70.46,12.31-96.04,6.57-22.97-5.15-37.92-26.46-33.32-49.85,2.18-11.09,5.2-22.07,8.97-32.59,9.48-26.41,33.11-42.65,60.94-43.96,45.46-2.14,89.35,6.88,130,27.71,5.22,2.67,9.27,10.05,9.53,14.47.35,6.05-2.09,12.94-6.83,16.88l-73.24,60.77Z"/>
  <image width="499" height="500" transform="translate(5899.36 622.19) scale(1.02)" xlink:href="../../../../../../Downloads/logonoutest-removebg-preview.png"/>
</svg>